<svg xmlns="http://www.w3.org/2000/svg" width="375" height="446"><path d="M0 0 C4.55585491 3.07382982 7.86113817 7.27415346 11.26953125 11.53125 C11.77226562 12.08167969 12.275 12.63210937 12.79296875 13.19921875 C14.50600932 15.25141835 15.29092889 16.9309898 15.1953125 19.61328125 C14.18389077 25.06011202 11.90640783 29.69697627 9.26953125 34.53125 C5.46148278 30.8741512 2.16140882 27.03555058 -1.04296875 22.84375 C-1.49736328 22.26302734 -1.95175781 21.68230469 -2.41992188 21.08398438 C-5.73046875 16.7777843 -5.73046875 16.7777843 -5.73046875 14.53125 C-6.94734375 14.263125 -8.16421875 13.995 -9.41796875 13.71875 C-10.10246094 13.56792969 -10.78695312 13.41710937 -11.4921875 13.26171875 C-16.14213064 13.82165955 -19.01463588 18.83295647 -21.7890625 22.2890625 C-22.91963242 23.74147961 -24.04570656 25.1974041 -25.16796875 26.65625 C-25.77415039 27.43959717 -26.38033203 28.22294434 -27.00488281 29.0300293 C-32.02116614 35.54227231 -36.90634067 42.14728111 -41.76391602 48.77832031 C-46.18202808 54.80634356 -50.70248579 60.74094801 -55.27832031 66.65039062 C-65.36245087 79.7116115 -75.28408786 92.88806137 -85.01806641 106.2121582 C-86.73046875 108.53125 -86.73046875 108.53125 -88.18411964 110.14761847 C-92.84837179 115.62852808 -93.58975227 119.70416545 -93.47218323 126.77424622 C-93.47942647 127.77943525 -93.48666972 128.78462427 -93.49413246 129.82027358 C-93.51098568 133.1748114 -93.48510347 136.52762037 -93.45922852 139.88208008 C-93.46244857 142.29215966 -93.46826699 144.70223697 -93.47648621 147.11230469 C-93.48950479 152.96917935 -93.47474248 158.82559091 -93.4469353 164.68237732 C-93.41571865 171.50324748 -93.41599548 178.32400859 -93.41745304 185.14493676 C-93.41895312 197.31181993 -93.39151396 209.47846602 -93.34790039 221.64526367 C-93.30559496 233.45325028 -93.28439019 245.26102837 -93.28637695 257.0690918 C-93.28649682 257.79710772 -93.28661669 258.52512364 -93.28674019 259.27520064 C-93.28686125 260.00195684 -93.28698232 260.72871304 -93.28710705 261.47749215 C-93.28917538 274.92411614 -93.27151945 288.37065154 -93.2446474 301.81724683 C-93.23559416 306.57336103 -93.23240829 311.32945897 -93.23105049 316.08558083 C-93.22879295 322.48044288 -93.2097889 328.87512863 -93.17955208 335.26992035 C-93.17076599 337.62137442 -93.16710321 339.97285381 -93.16883469 342.32432365 C-93.17029967 345.52417622 -93.15341174 348.72340594 -93.13160706 351.923172 C-93.13625286 352.86225885 -93.14089867 353.8013457 -93.14568526 354.76888973 C-93.13601192 355.6233612 -93.12633858 356.47783267 -93.11637211 357.35819721 C-93.11425883 358.09697332 -93.11214556 358.83574942 -93.10996825 359.59691268 C-92.61825928 362.10319008 -91.73995131 362.99512237 -89.73046875 364.53125 C-86.81442502 364.98282543 -86.81442502 364.98282543 -83.42956543 364.9054718 C-82.78800113 364.90944621 -82.14643683 364.91342061 -81.48543119 364.91751546 C-79.3318601 364.92715357 -77.17894347 364.91531193 -75.02539062 364.90356445 C-73.48303481 364.90599193 -71.94068057 364.90971083 -70.39833069 364.91462708 C-66.20620808 364.92404578 -62.01431855 364.9146025 -57.82221413 364.90129495 C-53.43937767 364.8899933 -49.0565529 364.89408696 -44.67370605 364.89604187 C-37.31286808 364.89692525 -29.95212213 364.88583521 -22.59130859 364.86743164 C-14.07582159 364.84626333 -5.56046943 364.84275387 2.95503855 364.8489936 C11.13975718 364.85468436 19.32442824 364.849045 27.50914001 364.83782005 C30.99552793 364.83317025 34.48188679 364.83230186 37.96827698 364.8344059 C42.07226156 364.8362868 46.17610852 364.8282002 50.28006172 364.8123455 C51.78815199 364.80809578 53.2962562 364.80725671 54.8043499 364.81003571 C56.85926127 364.81324838 58.91375909 364.80419927 60.96862793 364.79194641 C62.11973808 364.78989354 63.27084824 364.78784067 64.45684052 364.78572559 C67.47636884 364.73819845 67.47636884 364.73819845 70.26953125 362.53125 C70.73614116 360.67403943 70.73614116 360.67403943 70.68336773 358.50194073 C70.69920806 357.65399399 70.71504838 356.80604726 70.73136872 355.93240517 C70.73354411 354.99538209 70.7357195 354.05835901 70.73796082 353.09294128 C70.75181314 352.10149544 70.76566547 351.11004959 70.77993757 350.08855993 C70.82256593 346.74417311 70.8433514 343.40000962 70.86401367 340.05541992 C70.88934629 337.66557171 70.91577492 335.2757349 70.94322205 332.88591003 C71.01995769 325.69200642 71.07003805 318.49807325 71.11273453 311.30390903 C71.12495731 309.2688273 71.13788701 307.23375128 71.15104508 305.19867539 C71.23256777 292.54312034 71.30331544 279.88754553 71.34492016 267.2317915 C71.35472825 264.29832601 71.36465459 261.36486097 71.37475586 258.43139648 C71.37725632 257.70234477 71.37975678 256.97329306 71.38233302 256.22214887 C71.42450301 244.45369377 71.53185746 232.68678175 71.66638251 220.91905733 C71.8036008 208.81532571 71.87932712 196.7123797 71.89695817 184.60787469 C71.90838709 177.82039399 71.94591517 171.03535564 72.05290794 164.24864769 C72.15069119 157.84612762 72.17072395 151.4477967 72.13413429 145.04467964 C72.13374989 142.71028888 72.16017415 140.37569414 72.2171936 138.04199982 C72.62444524 120.40176438 67.96518725 110.6701091 56.14362109 97.62757266 C53.67486682 94.86606923 51.48053153 91.96846564 49.27734375 88.9921875 C47.30282353 86.40568148 45.32808617 83.81935051 43.3515625 81.234375 C42.38669922 79.96980469 42.38669922 79.96980469 41.40234375 78.6796875 C40.84434082 77.94927246 40.28633789 77.21885742 39.71142578 76.46630859 C36.2463816 71.81613247 36.2463816 71.81613247 36.4609375 69.17578125 C37.36592949 66.21597652 38.60402457 63.86429891 40.20703125 61.21875 C40.73167969 60.33574219 41.25632813 59.45273438 41.796875 58.54296875 C42.28285156 57.87910156 42.76882812 57.21523437 43.26953125 56.53125 C43.92953125 56.53125 44.58953125 56.53125 45.26953125 56.53125 C47.06146742 58.72311656 48.73621921 60.92801707 50.39453125 63.21875 C51.47938082 64.69350924 52.56537773 66.16742498 53.65234375 67.640625 C54.23532227 68.43275391 54.81830078 69.22488281 55.41894531 70.04101562 C57.98382411 73.49243564 60.60523763 76.89914856 63.22583008 80.30834961 C69.00964546 87.83746635 74.71399714 95.41171063 80.20703125 103.15625 C80.70912109 103.86064209 81.21121094 104.56503418 81.72851562 105.29077148 C84.73594108 109.57486394 86.39239198 112.58808732 86.40095901 117.81921101 C86.40480016 118.69929964 86.4086413 119.57938828 86.41259885 120.48614627 C86.41173237 121.453834 86.41086588 122.42152173 86.40997314 123.41853333 C86.41294427 124.4459184 86.41591539 125.47330347 86.41897655 126.53182143 C86.42768157 129.99103037 86.42917332 133.45020478 86.43066406 136.90942383 C86.43529094 139.38285903 86.44031542 141.85629352 86.44570923 144.32972717 C86.45884729 151.06114399 86.46531741 157.79254724 86.46971989 164.5239737 C86.47248209 168.72668919 86.4767194 172.92940238 86.48122406 177.13211632 C86.49341678 188.76705309 86.50371614 200.40198802 86.50709915 212.03693104 C86.5074285 213.15401599 86.5074285 213.15401599 86.5077645 214.29366831 C86.50798278 215.04017815 86.50820106 215.78668799 86.50842595 216.55581933 C86.50886942 218.06854427 86.50931598 219.58126921 86.50976562 221.09399414 C86.51009777 222.21954097 86.51009777 222.21954097 86.51043662 223.36782613 C86.51438486 235.52714596 86.53183965 247.68640588 86.55512515 259.84570257 C86.57883626 272.32794588 86.59130089 284.81015913 86.59246707 297.29242533 C86.59338396 304.30138104 86.59913972 311.31025868 86.61728668 318.31919289 C86.63429329 324.9109345 86.63594208 331.502554 86.62714767 338.0943203 C86.62637519 340.51548026 86.63074766 342.93664807 86.64060593 345.35778809 C86.65326343 348.65970882 86.64748202 351.9610991 86.63702393 355.26301575 C86.64910853 356.70450909 86.64910853 356.70450909 86.66143727 358.17512351 C86.61235901 364.78790104 85.40594842 368.9675494 81.08203125 374.15625 C72.76178843 381.18223283 64.95322106 381.11330593 54.55712891 381.06469727 C52.96627505 381.07176283 51.37542791 381.08051053 49.78459167 381.09080505 C45.48070133 381.11323944 41.17717977 381.11037304 36.87325335 381.10148358 C33.27252871 381.09635982 29.67187253 381.10367763 26.07115495 381.11095566 C17.57211491 381.12793634 9.07325449 381.12440798 0.57421875 381.10766602 C-8.17597927 381.09075146 -16.92567816 381.10657411 -25.67582166 381.1388889 C-33.20477677 381.16563413 -40.73357698 381.17284736 -48.26257479 381.16437382 C-52.75208084 381.15945834 -57.2412868 381.16158493 -61.73075485 381.18216133 C-65.95485516 381.20059588 -70.17824114 381.19446578 -74.4023037 381.16996193 C-75.94616151 381.16497829 -77.49007449 381.16837981 -79.03388786 381.18111038 C-87.76806905 381.24739647 -95.6101765 381.1485329 -102.73046875 375.53125 C-108.05513349 368.96835329 -109.60828422 363.11320699 -109.47891235 354.81564331 C-109.48686117 353.78368839 -109.49480998 352.75173348 -109.50299966 351.6885072 C-109.52213982 348.2551442 -109.49867745 344.82345157 -109.47509766 341.39013672 C-109.47995709 338.91890857 -109.48739922 336.44768435 -109.4972229 333.97647095 C-109.51405059 327.97642885 -109.50305882 321.97703334 -109.47869702 315.97706591 C-109.45136368 308.98305611 -109.45474081 301.98915957 -109.45896368 294.99510993 C-109.46533358 282.5134054 -109.44206338 270.03192966 -109.40283203 257.55029297 C-109.36481146 245.45061276 -109.35066237 233.35120052 -109.36181641 221.25146484 C-109.37394208 208.05878722 -109.3735607 194.8662272 -109.35084474 181.67355931 C-109.34843028 180.26595569 -109.34601831 178.85835207 -109.34360886 177.45074844 C-109.34240178 176.75826823 -109.3411947 176.06578802 -109.33995105 175.35232355 C-109.33220559 170.48180559 -109.33297491 165.61133153 -109.33678055 160.74081039 C-109.34147689 154.18253621 -109.32431302 147.62455674 -109.29265976 141.0663414 C-109.28418026 138.66054708 -109.28246883 136.25471791 -109.28804016 133.8489151 C-109.2944945 130.56319733 -109.27629555 127.27850205 -109.25186157 123.9928894 C-109.25942022 123.04249436 -109.26697887 122.09209932 -109.27476656 121.11290443 C-109.17153328 113.2575839 -106.6833066 107.57823631 -101.76953125 101.48046875 C-101.22312988 100.79235107 -100.67672852 100.1042334 -100.11376953 99.39526367 C-99.24341064 98.3178894 -99.24341064 98.3178894 -98.35546875 97.21875 C-97.09296841 95.62665009 -95.83261464 94.03284605 -94.57421875 92.4375 C-93.93355469 91.62539062 -93.29289062 90.81328125 -92.6328125 89.9765625 C-89.62839545 86.11462189 -86.74009069 82.17054159 -83.85546875 78.21875 C-78.89051313 71.42920468 -73.84382978 64.70973774 -68.73046875 58.03125 C-63.60033419 51.32934527 -58.53182693 44.58899909 -53.54296875 37.78125 C-47.97930246 30.19076877 -42.32274466 22.67893655 -36.5703125 15.23046875 C-34.88266476 13.04466326 -33.23360418 10.84771807 -31.609375 8.61328125 C-23.90649086 -1.9031285 -12.14975571 -5.95784868 0 0 Z " fill="#ADB5BD" transform="translate(198.73046875,64.46875)"></path><path d="M0 0 C15.43275989 10.08973328 25.52577684 24.50435204 29.40234375 42.52734375 C36.81164523 82.22778205 18.10231228 112.86243498 -3.59765625 144.52734375 C-3.17613281 145.3471875 -2.75460938 146.16703125 -2.3203125 147.01171875 C-1.77246094 148.089375 -1.22460938 149.16703125 -0.66015625 150.27734375 C-0.11488281 151.3446875 0.43039063 152.41203125 0.9921875 153.51171875 C4.40075541 160.80095539 4.27850828 167.62722373 1.71484375 175.21484375 C-1.41312424 183.0293143 -5.97376116 187.86015371 -13.59765625 191.52734375 C-20.76652639 194.18442956 -28.62769293 194.25826201 -35.86328125 191.73828125 C-44.64740939 187.61443483 -48.9639303 182.43069618 -52.59765625 173.52734375 C-54.86309535 166.11448288 -54.06269689 158.92696076 -50.921875 151.91796875 C-46.59783516 144.11173754 -41.05174976 139.79646715 -32.7421875 136.875 C-30.59765625 136.52734375 -30.59765625 136.52734375 -27.71484375 136.95703125 C-23.95565437 137.47335365 -21.28237101 137.49228643 -17.59765625 136.52734375 C-13.82238977 132.77987746 -11.44020712 128.52834555 -8.90722656 123.88085938 C-7.52971464 121.40524138 -6.06088484 119.00725074 -4.55859375 116.60546875 C8.84576851 95.09362932 19.22911628 73.09849587 13.86157227 47.20947266 C10.63571921 33.32706161 4.28393268 21.80472223 -7.90234375 13.94140625 C-16.79802509 9.27439662 -25.01052733 8.7939921 -34.59765625 11.52734375 C-41.11411791 13.67721913 -45.93199235 17.71181751 -49.59765625 23.52734375 C-51.98749564 29.83837592 -51.67936963 35.51988588 -51.25585938 42.11914062 C-51.06524643 47.94016665 -51.06524643 47.94016665 -53.9140625 51.08203125 C-56.59765625 52.52734375 -56.59765625 52.52734375 -59.72265625 52.46484375 C-62.70773738 51.49144773 -63.65254344 50.8919907 -65.59765625 48.52734375 C-69.38027388 38.63589979 -68.22690067 27.24807615 -64.59765625 17.52734375 C-58.4043272 6.16490545 -49.46068641 -0.4149643 -37.359375 -4.58984375 C-24.84014195 -7.52789844 -11.21249835 -6.35655921 0 0 Z M-35.84765625 157.08984375 C-38.79702536 161.19789358 -38.7318263 163.36576421 -38.09375 168.2734375 C-37.35957565 171.60901703 -36.13267711 173.25916719 -33.59765625 175.52734375 C-30.03965951 177.50400861 -27.61917868 178.54819115 -23.53515625 178.46484375 C-18.72081544 176.928352 -15.5861407 174.93035393 -12.66015625 170.77734375 C-11.33897223 166.73607498 -11.1953497 163.51203995 -12.59765625 159.52734375 C-15.05197433 155.71765599 -17.24723092 152.97748553 -21.59765625 151.52734375 C-28.19612546 151.03856825 -31.48000017 152.11556877 -35.84765625 157.08984375 Z " fill="#ADB5BD" transform="translate(212.59765625,5.47265625)"></path><path d="M0 0 C0.33 0.99 0.66 1.98 1 3 C-0.02880859 4.80249023 -0.02880859 4.80249023 -1.6484375 6.80859375 C-2.23753906 7.55004639 -2.82664063 8.29149902 -3.43359375 9.05541992 C-4.07425781 9.84150635 -4.71492187 10.62759277 -5.375 11.4375 C-6.67535222 13.06701202 -7.97483059 14.69722175 -9.2734375 16.328125 C-9.91249023 17.12541016 -10.55154297 17.92269531 -11.20996094 18.74414062 C-14.21645291 22.5330094 -17.07358526 26.42675414 -19.9375 30.32421875 C-24.60978858 36.38580527 -28.9800281 41.08264051 -35.4375 45.25 C-37.44857862 46.57089852 -39.43838156 47.90222933 -41.40014648 49.29589844 C-44 51 -44 51 -47.50805664 52.71191406 C-58.89834435 58.81268871 -62.15866236 68.15230623 -65.76599121 79.97911072 C-66.85173701 83.6263557 -67.88381568 87.28773057 -68.91060257 90.951931 C-70.02069786 94.86523921 -71.19435054 98.75938779 -72.36303711 102.65551758 C-74.06651912 108.3528412 -75.75177037 114.05494659 -77.41295719 119.76474857 C-80.36059285 129.89527385 -83.42282983 139.98603713 -86.5625 150.05859375 C-86.79044628 150.79004545 -87.01839256 151.52149715 -87.25324631 152.27511406 C-88.1710729 155.21888374 -89.08955961 158.16244562 -90.00932884 161.10560894 C-91.6060766 166.21652312 -93.19059052 171.33110493 -94.76806641 176.44799805 C-99.2264728 190.90376474 -103.72878152 205.34377007 -108.32395363 219.75671196 C-109.0785665 222.1253013 -109.83146515 224.49442778 -110.58366394 226.86378479 C-110.82796803 227.63328933 -111.07227213 228.40279387 -111.32397938 229.19561672 C-111.8114968 230.73139635 -112.29893379 232.26720152 -112.78628826 233.80303288 C-114.19939021 238.25237024 -115.62424204 242.69772456 -117.05795288 247.14046097 C-117.93571735 249.86945385 -118.80270685 252.60178222 -119.66684341 255.33511734 C-120.25981701 257.1988201 -120.86626617 259.05821857 -121.47311401 260.91744995 C-121.82350739 262.03209625 -122.17390076 263.14674255 -122.53491211 264.29516602 C-122.84383896 265.25793961 -123.15276581 266.2207132 -123.47105408 267.21266174 C-124.07944493 270.41864372 -123.70821315 272.83531804 -123 276 C-122.41888458 276.17255814 -121.83776917 276.34511627 -121.23904419 276.52290344 C-114.4296409 278.55423148 -107.64592352 280.66179297 -100.8671875 282.79296875 C-99.74933868 283.14386063 -98.63148987 283.4947525 -97.47976685 283.85627747 C-93.94465842 284.9660932 -90.40982509 286.07678219 -86.875 287.1875 C-84.46355986 287.94471941 -82.05210171 288.70188144 -79.640625 289.45898438 C-73.76020811 291.30532618 -67.8800376 293.15245067 -62 295 C-62 300.28 -62 305.56 -62 311 C-73.42046797 308.65262337 -84.47247974 305.00789515 -95.5925293 301.54321289 C-98.23763665 300.72034309 -100.88595156 299.90937779 -103.5378418 299.10864258 C-107.38814244 297.94597969 -111.2272243 296.74965804 -115.06640625 295.55078125 C-116.2436879 295.19945633 -117.42096954 294.84813141 -118.63392639 294.48616028 C-126.84176858 291.87663439 -133.16298 288.74978386 -137.68370056 281.18112183 C-141.90228391 270.98600422 -138.2777415 259.76158035 -134.9609375 249.81640625 C-134.52655504 248.46354483 -134.09408115 247.11006937 -133.66334534 245.75604248 C-132.73939929 242.86416436 -131.80333164 239.97662721 -130.85714722 237.09194946 C-129.34059024 232.46718972 -127.85255918 227.8335553 -126.36938477 223.19799805 C-124.81465871 218.34205386 -123.25885107 213.48648996 -121.69416809 208.63374329 C-116.77163339 193.36012907 -112.01605538 178.03704779 -107.29104614 162.7013855 C-105.93935064 158.31587862 -104.58167803 153.93223784 -103.22241211 149.54907227 C-102.99795945 148.82520734 -102.77350679 148.10134241 -102.54225254 147.35554218 C-102.08840118 145.89191061 -101.63453771 144.4282828 -101.18066216 142.96465874 C-97.88601388 132.33945661 -94.60136426 121.71129054 -91.33573055 111.07713223 C-89.4069749 104.79844152 -87.46898001 98.52264671 -85.52459049 92.24878025 C-84.3736005 88.5334518 -83.22720104 84.81685196 -82.09225464 81.09658813 C-81.04001079 77.64749676 -79.97580676 74.2023279 -78.90242004 70.7597599 C-78.32844563 68.90780307 -77.76732009 67.05187906 -77.20666504 65.19584656 C-74.81498738 57.57827611 -72.29160853 50.76750006 -65.390625 46.11328125 C-64.72748291 45.65638916 -64.06434082 45.19949707 -63.38110352 44.72875977 C-62.67783936 44.26139404 -61.9745752 43.79402832 -61.25 43.3125 C-59.72246619 42.26590234 -58.19512783 41.21901938 -56.66796875 40.171875 C-55.89114746 39.64529297 -55.11432617 39.11871094 -54.31396484 38.57617188 C-50.69984885 36.11439378 -47.13154663 33.58897417 -43.5625 31.0625 C-42.86479492 30.57048096 -42.16708984 30.07846191 -41.44824219 29.5715332 C-35.52254524 25.38785001 -29.64396624 21.14050898 -23.77026367 16.88427734 C-15.89639456 11.1858672 -7.95298726 5.58722523 0 0 Z " fill="#ADB5BD" transform="translate(139,87)"></path><path d="M0 0 C4.84738822 1.56636445 8.34934149 4.35402131 12.3125 7.4375 C17.74015601 11.58655551 23.22162823 15.60156159 28.875 19.4375 C34.86132569 23.52306077 40.83146865 27.62912281 46.75 31.8125 C47.8944458 32.60321899 47.8944458 32.60321899 49.06201172 33.40991211 C49.7788916 33.92046143 50.49577148 34.43101074 51.234375 34.95703125 C51.86569336 35.40022705 52.49701172 35.84342285 53.14746094 36.30004883 C58.45776211 41.17295698 60.30502506 47.2269566 62.3359375 53.90234375 C62.64723099 54.8975856 62.95852448 55.89282745 63.2792511 56.91822815 C64.32039925 60.25518998 65.34759905 63.59628233 66.375 66.9375 C67.12130322 69.33880553 67.86847788 71.73984037 68.61645508 74.140625 C70.44584233 80.02056779 72.26616241 85.9032497 74.08197308 91.78739738 C76.2398225 98.77936672 78.40532654 105.76895699 80.57142258 112.75837517 C81.69525093 116.38467964 82.81885208 120.01105448 83.94238281 123.63745117 C84.16785734 124.3651814 84.39333187 125.09291162 84.62563896 125.84269428 C86.0043055 130.29295794 87.38167035 134.74362229 88.75811577 139.1945734 C96.74276554 165.01285405 104.82497797 190.79989106 112.9440918 216.57617188 C113.16829898 217.28809629 113.39250616 218.00002071 113.6235075 218.7335186 C114.66641578 222.04498174 115.70981208 225.35628791 116.7542572 228.66726685 C117.83937763 232.11051326 118.91995101 235.55516005 120 239 C120.56669403 240.79127823 120.56669403 240.79127823 121.14483643 242.6187439 C121.50744568 243.77580841 121.87005493 244.93287292 122.24365234 246.125 C122.56876801 247.15705566 122.89388367 248.18911133 123.22885132 249.25244141 C125.06719504 255.80235482 125.59589644 263.79258882 122.4375 270 C115.66155777 278.33962121 108.71802472 280.89060763 98.640625 283.9609375 C97.24490612 284.39938509 95.84962825 284.83923879 94.45477295 285.28042603 C91.54639116 286.19657894 88.63487675 287.10158932 85.72021484 287.99755859 C81.9841303 289.14610069 78.25425882 290.31338746 74.52624893 291.48784447 C70.96211073 292.60998163 67.39531447 293.72354508 63.828125 294.8359375 C62.80963848 295.15448763 62.80963848 295.15448763 61.77057648 295.47947311 C59.85274163 296.07744042 57.93276456 296.66852404 56.01269531 297.25927734 C54.92128235 297.59647797 53.82986938 297.93367859 52.7053833 298.28109741 C50 299 50 299 47 299 C47 293.72 47 288.44 47 283 C54.36239103 280.6690862 61.72510331 278.33919227 69.08838272 276.01108646 C72.50752852 274.92998363 75.92653246 273.84843658 79.34521484 272.76586914 C82.64518341 271.72091195 85.9455211 270.67712843 89.24611664 269.63415337 C91.11642227 269.04280856 92.98634488 268.45025281 94.85626221 267.85768127 C95.99714294 267.49738327 97.13802368 267.13708527 98.31347656 266.76586914 C99.81905121 266.28954796 99.81905121 266.28954796 101.3550415 265.80360413 C103.56044551 265.13354758 105.75786507 264.53120167 108 264 C109.04133204 259.42146425 108.87546378 256.47462907 107.44311523 252.01977539 C107.07271118 250.84509705 106.70230713 249.6704187 106.32067871 248.46014404 C105.90016068 247.17259031 105.47945964 245.88509632 105.05859375 244.59765625 C104.62341927 243.23315449 104.18949094 241.86825476 103.75671387 240.50299072 C102.82273256 237.56472258 101.8808055 234.62916925 100.93258667 231.69546509 C99.41442258 226.99741768 97.9144881 222.29368103 96.41821289 217.58862305 C95.90411837 215.97254312 95.39000385 214.35646956 94.87586975 212.74040222 C94.61894915 211.93276114 94.36202854 211.12512005 94.09732246 210.29300499 C93.30617632 207.80826431 92.51329229 205.32408414 91.71995544 202.84004211 C87.05147941 188.21544779 82.49328713 173.55805925 77.96980572 158.88806534 C76.39024353 153.76863123 74.79714339 148.65353874 73.19848633 143.54003906 C72.28373681 140.61031584 71.36997291 137.68028707 70.45703125 134.75 C70.23170023 134.02685356 70.00636921 133.30370712 69.77420998 132.55864716 C66.69863442 122.67084409 63.74545198 112.75352256 60.88105774 102.80256653 C59.31391761 97.36258058 57.70894311 91.9339717 56.09453487 86.50784588 C55.00556781 82.83791207 53.93812011 79.16463622 52.92208862 75.4737854 C47.28535574 54.40680425 47.28535574 54.40680425 31.74169922 39.98071289 C31.09328064 39.6383963 30.44486206 39.29607971 29.77679443 38.94338989 C27.46366832 37.71523443 25.35708339 36.24629417 23.21875 34.73828125 C21.97969151 33.92888348 20.74013669 33.12024482 19.5 32.3125 C13.37346619 28.19960823 8.50693907 23.89703112 4 18 C3.08927734 16.96552734 3.08927734 16.96552734 2.16015625 15.91015625 C-0.81513163 12.39513361 -2.01520445 10.92747121 -1.9375 6.1875 C-1.32766768 4.11407012 -0.68344765 2.05034296 0 0 Z " fill="#ADB5BD" transform="translate(251,99)"></path><path d="M0 0 C2.8125 1.9375 2.8125 1.9375 5 5 C5.25 7.1953125 5.25 7.1953125 5.3125 9.5625 C5.36305918 11.90465898 5.36305918 11.90465898 6 14 C7.85811089 15.44519736 9.6757115 16.18276336 11.85546875 17.05859375 C15.36921473 18.60105783 17.959802 20.73866159 20 24 C20.77162639 27.07463438 20.52540432 28.74249324 20 32 C18.375 34.5 18.375 34.5 16 36 C12.49010104 36.51186027 10.70545237 36.40841979 7.625 34.625 C7.08875 34.08875 6.5525 33.5525 6 33 C6 32.34 6 31.68 6 31 C1.0560311 29.11658328 -3.21531187 27.94633422 -8.3125 29.875 C-10.1589195 30.90438989 -10.1589195 30.90438989 -11 33 C-11.52383339 37.7838435 -11.52383339 37.7838435 -9.56640625 41.98046875 C-5.25794841 45.37083816 -0.16828779 46.96126876 4.9140625 48.91210938 C12.22338347 51.82549439 17.95983628 55.19434199 21.3046875 62.62890625 C23.10697179 68.77489817 23.04548575 75.48162961 20.4375 81.375 C17.61909674 86.17228214 13.5915604 90.251327 8.1875 91.8125 C5.81791845 92.77268889 5.81791845 92.77268889 5.35546875 95.0078125 C5.04074111 96.59936205 4.77188153 98.20082815 4.5546875 99.80859375 C3.89420896 102.41794912 3.14276197 103.39670987 1 105 C-2.82540234 105.48686939 -5.08477323 105.53974912 -8.4375 103.5625 C-10.73784649 99.78993176 -10.33148757 96.30933841 -10 92 C-10.66 91.95875 -11.32 91.9175 -12 91.875 C-16.35975872 90.60340371 -19.61339542 87.98306057 -23 85 C-24.56430248 81.87139505 -24.35627284 79.44397075 -24 76 C-21.9375 73.5 -21.9375 73.5 -19 72 C-13.46477637 72 -11.17545907 73.65963274 -7 77 C-2.35432528 78.16141868 0.76547476 78.36635234 5 76 C6.455276 73.08944799 6.45067148 71.21908202 6 68 C2.40284321 64.60839503 -1.70882741 63.32307596 -6.3125 61.625 C-14.11546287 58.67998209 -20.73502497 55.88702526 -25.0625 48.4375 C-27.95666564 41.77488951 -28.27666798 34.60351456 -26.3359375 27.60546875 C-23.59177368 21.36547884 -18.83069269 17.13227707 -12.5625 14.625 C-11.716875 14.41875 -10.87125 14.2125 -10 14 C-10.04640625 13.32453125 -10.0928125 12.6490625 -10.140625 11.953125 C-10.43405676 4.70116861 -10.43405676 4.70116861 -8.375 1.375 C-5.22568648 -0.44828677 -3.58638897 -0.6587245 0 0 Z " fill="#ADB5BD" transform="translate(190,267)"></path><path d="M0 0 C1.875 0.1875 1.875 0.1875 4 1 C5.25 3.5625 5.25 3.5625 6 6 C7.65 6 9.3 6 11 6 C11.66 7.32 12.32 8.64 13 10 C12.525625 10.515625 12.05125 11.03125 11.5625 11.5625 C9.57190593 14.66782675 9.34939182 17.36632504 9 21 C6.54700814 21.81766395 5.12810602 22.02627816 2.5625 21.5 C-0.28415843 20.94455445 -2.2003501 21.37785558 -5 22 C-5.33 21.67 -5.66 21.34 -6 21 C-5.95875 19.88625 -5.9175 18.7725 -5.875 17.625 C-6.01568021 13.54527401 -6.31038733 13.57267299 -9 11 C-8.6875 8.3125 -8.6875 8.3125 -8 6 C-6.8553125 5.9071875 -6.8553125 5.9071875 -5.6875 5.8125 C-2.76948191 5.23064738 -2.76948191 5.23064738 -1.1875 2.4375 C-0.795625 1.633125 -0.40375 0.82875 0 0 Z " fill="#ADB5BD" transform="translate(238,385)"></path><path d="M0 0 C1.9375 0.1875 1.9375 0.1875 4 1 C4.28875 1.639375 4.5775 2.27875 4.875 2.9375 C5.90505873 5.34703737 5.90505873 5.34703737 9.125 6.25 C10.07375 6.4975 11.0225 6.745 12 7 C11.125 11.875 11.125 11.875 10 13 C9.76924918 14.34747084 9.58846937 15.70377565 9.4375 17.0625 C9.293125 18.361875 9.14875 19.66125 9 21 C6.54700814 21.81766395 5.12810602 22.02627816 2.5625 21.5 C-0.28415843 20.94455445 -2.2003501 21.37785558 -5 22 C-6 21 -6 21 -6.4375 17.625 C-6.75300217 13.91489453 -6.75300217 13.91489453 -9 11 C-8.625 8.3125 -8.625 8.3125 -8 6 C-6.35 6 -4.7 6 -3 6 C-2.690625 5.195625 -2.38125 4.39125 -2.0625 3.5625 C-1 1 -1 1 0 0 Z " fill="#ADB5BD" transform="translate(134,385)"></path><path d="M0 0 C1.32 0 2.64 0 4 0 C4.474375 0.804375 4.94875 1.60875 5.4375 2.4375 C6.76479918 5.25476709 6.76479918 5.25476709 9.6875 5.8125 C10.450625 5.874375 11.21375 5.93625 12 6 C12.6875 7.8125 12.6875 7.8125 13 10 C12.54625 10.4125 12.0925 10.825 11.625 11.25 C8.99784984 14.07923863 9.30971248 17.22150778 9 21 C6 22 6 22 3.5 20.9375 C2.2625 20.4734375 2.2625 20.4734375 1 20 C0.01 20.66 -0.98 21.32 -2 22 C-4.1875 21.625 -4.1875 21.625 -6 21 C-5.9071875 19.3603125 -5.9071875 19.3603125 -5.8125 17.6875 C-6.02148815 13.57739978 -6.29396332 13.58838291 -9 11 C-8.6875 8.3125 -8.6875 8.3125 -8 6 C-6.576875 5.9071875 -6.576875 5.9071875 -5.125 5.8125 C-4.09375 5.544375 -3.0625 5.27625 -2 5 C-0.54708727 2.53744315 -0.54708727 2.53744315 0 0 Z " fill="#ADB5BD" transform="translate(238,229)"></path><path d="M0 0 C1.65 0.33 3.3 0.66 5 1 C5.33 2.32 5.66 3.64 6 5 C8.31 5.66 10.62 6.32 13 7 C12.125 11.875 12.125 11.875 11 13 C10.76924918 14.34747084 10.58846937 15.70377565 10.4375 17.0625 C10.293125 18.361875 10.14875 19.66125 10 21 C8.25 21.625 8.25 21.625 6 22 C5.071875 21.4740625 5.071875 21.4740625 4.125 20.9375 C1.86056454 19.67293985 1.86056454 19.67293985 -1.25 20.875 C-2.61125 21.431875 -2.61125 21.431875 -4 22 C-5.88267985 20.11732015 -5.40620537 17.42937958 -5.62109375 14.91015625 C-5.86222227 12.7671052 -5.86222227 12.7671052 -8 11 C-8.125 8.375 -8.125 8.375 -8 6 C-7.05125 5.7525 -6.1025 5.505 -5.125 5.25 C-1.91306809 4.3142923 -1.91306809 4.3142923 -0.625 1.875 C-0.41875 1.25625 -0.2125 0.6375 0 0 Z " fill="#ADB5BD" transform="translate(133,229)"></path></svg>