<svg xmlns="http://www.w3.org/2000/svg" width="300" height="300"><path d="M0 0 C1.16088135 0.32145996 1.16088135 0.32145996 2.34521484 0.64941406 C13.53086106 3.83735804 23.83077021 8.39151569 34 14 C34.64066406 14.34933594 35.28132812 14.69867187 35.94140625 15.05859375 C45.56587448 20.36663381 53.96085232 26.51479876 62 34 C62.61407715 34.57024902 63.2281543 35.14049805 63.86083984 35.72802734 C92.13525059 62.28753827 110.06029725 99.17569742 111.28125 138.1953125 C111.53772008 152.34227387 111.25127725 166.18847184 108 180 C107.83371094 180.70833984 107.66742188 181.41667969 107.49609375 182.14648438 C101.08786798 208.27780501 87.40198769 231.53213908 69 251 C68.25363281 251.81082031 67.50726563 252.62164062 66.73828125 253.45703125 C51.60091688 269.34500873 32.20309844 279.93180891 12 288 C10.55947266 288.57814453 10.55947266 288.57814453 9.08984375 289.16796875 C3.43006602 291.17119765 -1.44717707 291.64635553 -7 289 C-10.88432205 285.11567795 -11.46693314 281.60311231 -11.62890625 276.34375 C-10.66292851 272.74383297 -8.81553494 270.340825 -6 268 C-2.83909729 266.38699014 0.44805642 265.2999175 3.8125 264.1875 C35.17484504 252.99053553 59.78225547 230.85886829 74.35595703 200.85546875 C81.46749605 185.64250617 86.39114106 168.8704665 87 152 C87.0515625 151.07058594 87.103125 150.14117187 87.15625 149.18359375 C88.18468589 115.63087279 75.07749297 84.62407054 53.4375 59.5 C48.71154912 54.47547821 43.47783258 50.1769453 38 46 C36.84951172 45.10861328 36.84951172 45.10861328 35.67578125 44.19921875 C9.21291607 24.65533699 -24.52735914 16.27511548 -57.0612793 20.82495117 C-89.04464844 25.97572692 -117.41625564 41.9766245 -138 67 C-138.33 67.66 -138.66 68.32 -139 69 C-137.91332031 68.83951172 -137.91332031 68.83951172 -136.8046875 68.67578125 C-126.86147532 67.44282294 -126.86147532 67.44282294 -122 71 C-118.46816378 74.34092615 -117.26817593 77.27374594 -116.90234375 82.01171875 C-117.12542301 86.55361253 -119.24369844 89.28248313 -122.4375 92.3125 C-126.90414725 95.25395063 -131.42422257 95.25077172 -136.66015625 95.53515625 C-137.77782631 95.59962196 -137.77782631 95.59962196 -138.91807556 95.66539001 C-140.49565267 95.75543637 -142.0733398 95.84357249 -143.65112305 95.92993164 C-146.03011219 96.06071944 -148.40859172 96.19882058 -150.78710938 96.33789062 C-173.70285486 97.64857257 -173.70285486 97.64857257 -178.5 95.25 C-182.51147664 91.63967102 -184.14483171 89.32772729 -185 84 C-185.08927953 82.22434804 -185.1306096 80.44586241 -185.1328125 78.66796875 C-185.13514893 77.63317383 -185.13748535 76.59837891 -185.13989258 75.53222656 C-185.11386977 69.68776086 -185.06772343 63.84413329 -185 58 C-184.99274902 56.85547363 -184.98549805 55.71094727 -184.97802734 54.53173828 C-184.9501575 51.27002221 -184.88699831 48.01094793 -184.8125 44.75 C-184.80686035 43.75766357 -184.8012207 42.76532715 -184.79541016 41.74291992 C-184.65438346 37.24136339 -184.48922692 34.00052613 -181.59375 30.41796875 C-177.61129735 26.70541123 -175.52537353 25.97578772 -170.0625 26.0625 C-165.4567781 26.80254983 -163.20126594 28.64629283 -160 32 C-157.86457177 36.14480687 -157.58539763 40.23196828 -157.375 44.8125 C-157.33632812 45.50537109 -157.29765625 46.19824219 -157.2578125 46.91210938 C-157.16426432 48.60767015 -157.08107636 50.30379712 -157 52 C-156.43152344 51.28714844 -155.86304688 50.57429688 -155.27734375 49.83984375 C-135.32384191 25.08950674 -108.49078431 8.59365985 -78 0 C-77.25169922 -0.21317871 -76.50339844 -0.42635742 -75.73242188 -0.64599609 C-52.20175103 -7.00250336 -23.40685211 -6.63572895 0 0 Z " fill="#ADB5BD" transform="translate(189,4)"></path><path d="M0 0 C4.97533385 2.48766692 6.92609076 4.90831655 9 10 C9.36076355 13.4928894 9.36076355 13.4928894 9.34057617 17.38232422 C9.34123329 18.45165443 9.34123329 18.45165443 9.34190369 19.54258728 C9.33982693 21.88024042 9.3165498 24.2171609 9.29296875 26.5546875 C9.28736881 28.18278614 9.28310059 29.81088985 9.28010559 31.43899536 C9.26868812 35.71014528 9.23924794 39.98098588 9.20599365 44.25201416 C9.17522571 48.61588355 9.16158592 52.97980325 9.14648438 57.34375 C9.11437497 65.89597478 9.06321651 74.44794884 9 83 C9.54550003 83.17165176 10.09100006 83.34330353 10.6530304 83.52015686 C16.25503097 85.32867614 21.61260814 87.46148689 26.98046875 89.87109375 C27.79695389 90.23469498 28.61343903 90.5982962 29.45466614 90.97291565 C31.16563829 91.7363984 32.8756465 92.50204477 34.5847168 93.26977539 C37.18807106 94.4377562 39.79593204 95.59521281 42.40429688 96.75195312 C44.07580273 97.49936989 45.74703629 98.24739597 47.41796875 98.99609375 C48.18997116 99.33789169 48.96197357 99.67968964 49.75737 100.03184509 C60.24913933 104.77163187 60.24913933 104.77163187 63.375 108.75 C64.82399408 113.96637867 64.70053657 117.64896519 62.25 122.375 C59 126.16666667 59 126.16666667 56 127 C49.3302234 127.49980002 44.90046324 126.11985546 38.8828125 123.34375 C38.02678436 122.96319458 37.17075623 122.58263916 36.28878784 122.19055176 C33.56110353 120.97414488 30.84311564 119.73761834 28.125 118.5 C26.33915262 117.69915704 24.55269812 116.89966648 22.765625 116.1015625 C19.23303456 114.52242948 15.70714237 112.92946558 12.18457031 111.328125 C8.74421697 109.77025356 5.28785434 108.26341802 1.80761719 106.796875 C0.98526581 106.44596802 0.16291443 106.09506104 -0.68435669 105.73352051 C-2.22587034 105.07789957 -3.77193326 104.43282882 -5.32321167 103.80065918 C-9.7094238 101.92069854 -12.39735416 100.18175193 -15 96 C-16.36072495 92.14726162 -16.15506255 88.14819743 -16.16113281 84.11376953 C-16.16609772 83.3230304 -16.17106262 82.53229126 -16.17617798 81.71759033 C-16.19076334 79.10598882 -16.19759514 76.49444802 -16.203125 73.8828125 C-16.20887894 72.06444294 -16.21463664 70.24607339 -16.22039795 68.42770386 C-16.23089727 64.61635048 -16.23674709 60.80501814 -16.24023438 56.99365234 C-16.24572032 52.11563166 -16.26975499 47.23788993 -16.29820633 42.35995674 C-16.31685022 38.60410759 -16.32203922 34.84832545 -16.32357025 31.09243393 C-16.32659277 29.29433541 -16.33460778 27.49623796 -16.34775543 25.69818497 C-16.36485454 23.18024834 -16.36292654 20.66299103 -16.35644531 18.14501953 C-16.3656601 17.40611481 -16.37487488 16.66721008 -16.3843689 15.90591431 C-16.34648916 11.19622359 -15.49612557 7.99382862 -13 4 C-8.70146264 0.28762682 -5.6468782 -0.80669689 0 0 Z " fill="#ADB5BD" transform="translate(142,79)"></path><path d="M0 0 C0.95132813 0.75796875 1.90265625 1.5159375 2.8828125 2.296875 C7.22546025 5.69025051 11.59623559 8.83303012 16.265625 11.7578125 C18.71733415 13.57185739 19.88593378 15.30149043 20.37890625 18.31640625 C20.49508268 22.76527999 20.57289995 26.03839299 17.6953125 29.609375 C14.39065104 32.60662609 11.60731813 33.54949831 7.13671875 33.4375 C-0.6493413 32.00886513 -7.4060292 26.19113688 -13.5546875 21.484375 C-14.16256104 21.02571045 -14.77043457 20.5670459 -15.39672852 20.09448242 C-18.79985192 17.40253134 -20.94885122 15.31004378 -21.9921875 11.046875 C-22.22543394 6.94173764 -21.38335484 3.7389403 -19.3671875 0.171875 C-13.13383104 -5.40533868 -6.65252502 -4.34237925 0 0 Z " fill="#ADB5BD" transform="translate(71.9921875,248.953125)"></path><path d="M0 0 C0.84046875 -0.04898438 1.6809375 -0.09796875 2.546875 -0.1484375 C6.38916904 0.59559054 8.74582617 2.48703149 11.25 5.375 C12.91650587 8.10131781 14.18725284 10.93831397 15.4375 13.875 C16.09528349 15.36563264 16.75538615 16.85524435 17.41796875 18.34375 C17.72589355 19.0442749 18.03381836 19.7447998 18.35107422 20.46655273 C19.29487109 22.56468925 19.29487109 22.56468925 20.95703125 25.12890625 C23.07322907 28.80508071 23.0447034 32.26421603 22.25 36.375 C20.52803193 39.44265423 18.44357293 41.77821354 15.25 43.375 C13.296875 43.6484375 13.296875 43.6484375 11 43.75 C10.25234375 43.79898438 9.5046875 43.84796875 8.734375 43.8984375 C4.35440366 42.97561335 1.505169 40.13368209 -1.02197266 36.59277344 C-2.23173292 34.61480787 -3.34636207 32.60814307 -4.4375 30.5625 C-5.00307617 29.55219727 -5.00307617 29.55219727 -5.58007812 28.52148438 C-9.61249757 21.16742099 -12.82761522 14.82396855 -10.75 6.375 C-7.61469032 1.62146596 -5.59694907 0.22048587 0 0 Z " fill="#ADB5BD" transform="translate(21.75,191.625)"></path><path d="M0 0 C1.41925781 0.16822266 1.41925781 0.16822266 2.8671875 0.33984375 C4.00414062 0.47519531 5.14109375 0.61054688 6.3125 0.75 C7.81477093 0.88020583 9.31740825 1.00622659 10.8203125 1.12890625 C12.42191879 1.27295142 14.02348134 1.41748379 15.625 1.5625 C16.77198364 1.64902832 16.77198364 1.64902832 17.94213867 1.73730469 C23.03382422 2.23818096 26.2391698 3.42751408 30.3125 6.75 C32.42113429 10.39218651 32.82212203 13.58808672 32.3125 17.75 C30.27256092 21.4078218 28.80830738 23.41946174 25.3125 25.75 C23.41821289 26.00878906 23.41821289 26.00878906 21.28515625 26.015625 C20.49842529 26.01981445 19.71169434 26.02400391 18.90112305 26.02832031 C18.06750244 26.01897461 17.23388184 26.00962891 16.375 26 C15.52268799 25.99323242 14.67037598 25.98646484 13.79223633 25.97949219 C-4.8636195 25.67600148 -4.8636195 25.67600148 -11.6875 19.75 C-14.38587974 15.70243039 -14.34447693 12.50294418 -13.6875 7.75 C-11.96818735 4.24769646 -10.84376481 2.3281324 -7.3359375 0.57421875 C-4.54322208 -0.29490065 -2.8804538 -0.35251931 0 0 Z " fill="#ADB5BD" transform="translate(124.6875,274.25)"></path><path d="M0 0 C4.00723595 2.49339126 5.60888039 4.54342389 7 9 C7.26436004 13.31290089 7.09476536 17.60280538 6.94335938 21.91992188 C6.87521155 23.99356269 6.83909766 26.06618395 6.8046875 28.140625 C6.7634375 29.45546875 6.7221875 30.7703125 6.6796875 32.125 C6.62917236 33.92324219 6.62917236 33.92324219 6.57763672 35.7578125 C5.90003262 39.56110178 4.67103779 41.25898554 2 44 C-1.73804365 45.92955695 -5.15902058 46.16172681 -9.25 45.375 C-12.82574046 43.58712977 -15.20207123 41.59585753 -17 38 C-17.23478917 33.77201619 -17.2284097 29.54012203 -17.24023438 25.30639648 C-17.24991561 23.20581089 -17.28092684 21.10621425 -17.3125 19.00585938 C-17.31903286 17.6640683 -17.32428222 16.32227023 -17.328125 14.98046875 C-17.3374707 13.76254639 -17.34681641 12.54462402 -17.35644531 11.28979492 C-16.87158403 6.81479092 -15.36367532 4.19321591 -12 1.25 C-7.75753976 -1.40153765 -4.77336599 -1.06989238 0 0 Z " fill="#ADB5BD" transform="translate(17,126)"></path></svg>