<svg xmlns="http://www.w3.org/2000/svg" width="383" height="429"><path d="M0 0 C1.18144844 -0.0049926 1.18144844 -0.0049926 2.38676453 -0.01008606 C4.04486512 -0.01512208 5.70297575 -0.01749542 7.36108398 -0.01733398 C9.86915172 -0.01951597 12.37677572 -0.03769476 14.88476562 -0.05664062 C27.77818119 -0.10338495 38.95864072 -0.02452161 48.82421875 9.29296875 C51.99040789 14.4945652 53.6330622 20.32544734 55.5390625 26.08203125 C58.26841381 34.03989893 60.6691426 39.82809955 68.19921875 44.10546875 C75.39979549 47.33183993 82.16034519 47.3306096 89.51171875 44.54296875 C92.23561752 43.35045874 94.7925827 42.04310234 97.375 40.56640625 C105.74102969 35.89029429 113.42709417 34.32082338 122.88671875 36.765625 C128.06547198 39.01044747 132.06953406 43.06968371 136.140625 46.88671875 C138.21393989 48.83024346 140.3309514 50.6609328 142.51171875 52.48046875 C151.76361867 60.56884373 163.61665821 71.5525786 165.57421875 84.16796875 C165.65154645 91.51410055 164.21796767 96.87859356 160.57421875 103.16796875 C159.66654904 104.91185896 158.77104772 106.66212717 157.88671875 108.41796875 C157.47035156 109.2275 157.05398438 110.03703125 156.625 110.87109375 C153.9964598 116.6167504 153.3583897 123.35528743 155.29296875 129.421875 C159.19378663 137.71111299 165.28454954 141.77571929 173.57421875 145.16796875 C175.77523859 145.83830333 177.98402601 146.48357009 180.19921875 147.10546875 C187.02514109 149.13718446 192.13015472 151.46205712 196.1328125 157.53125 C200.14030994 165.01266874 200.72966825 172.24816782 200.7421875 180.59375 C200.7455159 181.38138229 200.7488443 182.16901459 200.75227356 182.98051453 C200.75730958 184.63861512 200.75968292 186.29672575 200.75952148 187.95483398 C200.76170347 190.46290172 200.77988226 192.97052572 200.79882812 195.47851562 C200.88427852 218.84672914 200.88427852 218.84672914 192.57421875 228.16796875 C187.48011106 232.57795041 183.15064218 233.50895346 176.57421875 234.16796875 C177.35925781 235.16054688 178.14429688 236.153125 178.953125 237.17578125 C196.12798579 259.23781978 202.89279221 281.44524435 200.37207031 309.41064453 C197.37180642 331.64090174 184.15075324 351.31930983 166.76171875 364.98046875 C146.88192517 379.14001205 123.56581016 383.99026966 99.48046875 380.70703125 C85.69085643 378.0186894 73.83637426 372.45428463 62.57421875 364.16796875 C61.74277344 363.55953125 60.91132813 362.95109375 60.0546875 362.32421875 C58.21300639 360.9566657 56.38599463 359.57475944 54.57421875 358.16796875 C54.34347656 358.89242188 54.11273438 359.616875 53.875 360.36328125 C50.72277386 369.70782515 47.24574858 374.71200999 38.3671875 379.1875 C32.33178898 381.30622032 25.86461351 381.32570733 19.5234375 381.3359375 C18.78398392 381.3392659 18.04453033 381.3425943 17.28266907 381.34602356 C15.72889826 381.35105015 14.17511682 381.35343322 12.62133789 381.35327148 C10.27797146 381.35545362 7.9350801 381.373643 5.59179688 381.39257812 C-18.17186128 381.48525715 -18.17186128 381.48525715 -27.42578125 373.16796875 C-32.13875158 368.08486986 -33.58408206 361.60119184 -35.48364258 355.11083984 C-37.59401353 348.14064217 -40.49922436 341.96596914 -46.61328125 337.66796875 C-53.23187333 334.13805297 -61.00129884 334.03095092 -68.22265625 335.88671875 C-73.06907179 337.75304026 -77.43384704 340.21724902 -81.734375 343.1171875 C-87.40933605 346.64274067 -95.54744025 345.97725339 -101.859375 344.66015625 C-108.1622123 342.2777994 -112.79549453 337.50510426 -117.56640625 332.91015625 C-119.89945532 330.67272394 -122.26644969 328.55948987 -124.73828125 326.48046875 C-134.50010197 317.96655089 -144.51157893 307.04135385 -145.73828125 293.79296875 C-145.2020139 287.57226749 -143.35591896 282.38053452 -139.92578125 277.16796875 C-135.3319718 270.14540808 -133.10140096 262.56428265 -134.42578125 254.16796875 C-136.42327138 247.63511457 -139.55885594 243.04823038 -145.43359375 239.52734375 C-149.35827245 237.74433045 -153.38168387 236.46487671 -157.48828125 235.16796875 C-166.46002772 232.32998593 -172.70315658 229.83477714 -177.36328125 221.23046875 C-180.48954944 214.7129944 -180.58311263 207.83327176 -180.59375 200.7421875 C-180.5970784 199.95455521 -180.6004068 199.16692291 -180.60383606 198.35542297 C-180.60887208 196.69732238 -180.61124542 195.03921175 -180.61108398 193.38110352 C-180.61326597 190.87303578 -180.63144476 188.36541178 -180.65039062 185.85742188 C-180.73550205 162.5819092 -180.73550205 162.5819092 -172.42578125 153.16796875 C-167.33922444 148.43944628 -160.79275924 146.96509588 -154.29614258 145.03540039 C-145.85805201 142.47987572 -140.76593429 139.75386253 -136.3359375 132.03515625 C-133.56685512 126.3543778 -133.6010795 120.40402672 -135.14453125 114.34765625 C-136.68299338 109.89356024 -138.45523134 105.91615422 -141.05078125 101.98046875 C-145.13984496 95.75852922 -145.95708473 89.95169187 -144.94921875 82.60546875 C-143.32425502 75.03847347 -138.90984733 70.15066991 -133.70703125 64.6015625 C-131.76350654 62.52824761 -129.9328172 60.4112361 -128.11328125 58.23046875 C-120.46304656 49.47973627 -109.65763356 37.42040186 -97.6328125 35.7890625 C-88.09864506 35.27340557 -82.19825589 37.62140616 -74.01953125 42.22265625 C-67.3005602 45.98140303 -61.05526364 47.1410642 -53.42578125 46.16796875 C-46.88462503 44.23471455 -42.29814482 41.02973212 -38.79296875 35.16796875 C-36.65091961 30.46770092 -35.07643745 25.5878376 -33.60449219 20.63989258 C-31.49276523 13.67314614 -28.60623866 8.33618421 -22.42578125 4.16796875 C-15.09262301 0.50138963 -8.03383289 0.01205159 0 0 Z M-14.42578125 21.16796875 C-15.61909766 23.85293068 -16.53499153 26.38262139 -17.42578125 29.16796875 C-21.89888163 41.97363156 -27.37026874 54.05900057 -40.0859375 60.51953125 C-53.21045444 65.89304481 -66.21535408 65.44607283 -79.42578125 60.16796875 C-82.65504837 58.38682026 -85.74511368 56.51904194 -88.8046875 54.4609375 C-91.31673293 52.9687624 -91.31673293 52.9687624 -93.953125 53.234375 C-105.15105672 57.46234606 -120.76854255 73.59542429 -126.42578125 84.16796875 C-127.85152388 87.82779915 -127.47465642 89.05528432 -125.87890625 92.734375 C-125.15396782 94.0715654 -124.4190713 95.40339159 -123.67578125 96.73046875 C-117.34647606 108.7128947 -114.29869807 120.61735995 -117.75 134.0234375 C-121.0065208 144.35771448 -127.64531172 152.44631038 -137.21704102 157.5637207 C-143.40218577 160.65593074 -149.47921227 163.11300141 -156.2890625 164.5 C-158.77956693 165.2785672 -159.8219743 166.12990022 -161.42578125 168.16796875 C-165.01344817 178.9309695 -163.68497309 192.31914125 -163.11328125 203.54296875 C-163.05527344 204.68507812 -162.99726563 205.8271875 -162.9375 207.00390625 C-162.37916656 210.45619696 -161.57320561 212.41965959 -159.42578125 215.16796875 C-157.60276791 216.21966386 -157.60276791 216.21966386 -155.48828125 216.66796875 C-141.63029684 220.70143088 -129.02788383 226.56334148 -121.17578125 239.17578125 C-115.44197027 249.92667683 -115.1041265 261.16064409 -118.22265625 272.83984375 C-119.96966406 277.67247573 -122.31124763 282.16892631 -124.8203125 286.64916992 C-126.34496075 289.46111919 -127.43255083 291.59170843 -127.39453125 294.828125 C-122.75179244 306.04183689 -107.16623546 321.4208836 -96.42578125 327.16796875 C-94.05385923 328.12786733 -94.05385923 328.12786733 -91.42578125 328.16796875 C-88.70151323 326.89660691 -88.70151323 326.89660691 -85.98828125 324.98046875 C-74.4165872 317.89864865 -61.56552111 315.00902892 -48.16015625 317.86328125 C-37.07236326 321.17847564 -28.37751906 328.00660351 -22.76171875 338.18359375 C-19.82058417 344.29767647 -17.61016984 350.29532993 -16.1640625 356.92578125 C-15.3314658 359.45440827 -14.50793954 360.53669145 -12.42578125 362.16796875 C-0.34992548 366.19325401 17.18078099 365.62044661 29.57421875 363.16796875 C33.01778075 361.44618775 34.40887777 360.41598021 36.57421875 357.16796875 C37.3136499 354.87154673 37.99492184 352.55606743 38.63671875 350.23046875 C38.97832031 349.00457031 39.31992188 347.77867187 39.671875 346.515625 C39.96964844 345.41089844 40.26742187 344.30617188 40.57421875 343.16796875 C40.83460938 342.47445313 41.095 341.7809375 41.36328125 341.06640625 C41.69397362 338.09017494 40.32908044 336.30436843 38.88671875 333.73046875 C33.57876981 323.59487251 31.33440172 313.38742074 29.57421875 302.16796875 C28.70958008 302.18891602 27.84494141 302.20986328 26.95410156 302.23144531 C-11.10609923 303.03005245 -42.09658715 296.13421984 -70.61328125 269.41796875 C-92.67435662 246.17589362 -102.49878731 216.13983504 -101.7734375 184.4375 C-100.75593971 160.56094802 -92.01889587 137.34338261 -76.42578125 119.16796875 C-75.72582031 118.34683594 -75.02585937 117.52570313 -74.3046875 116.6796875 C-55.78075542 95.52323821 -30.50962498 82.25923296 -2.42578125 79.16796875 C33.356479 77.21330414 61.83912761 86.88131544 88.84375 110.12109375 C103.65507194 123.99728131 113.2051122 142.82698266 118.57421875 162.16796875 C119.05375 163.83666016 119.05375 163.83666016 119.54296875 165.5390625 C122.96831054 180.01747478 121.83651315 195.38263528 121.57421875 210.16796875 C122.63858154 210.3366748 123.70294434 210.50538086 124.79956055 210.67919922 C132.23363719 211.88799999 139.20946967 213.49611149 146.26171875 216.16796875 C146.91978516 216.41691895 147.57785156 216.66586914 148.25585938 216.92236328 C151.12403703 218.05231872 153.68582573 219.24065058 156.2734375 220.92578125 C158.44774782 222.38701336 158.44774782 222.38701336 160.64453125 221.91015625 C161.32257813 221.62398437 162.000625 221.3378125 162.69921875 221.04296875 C167.13318929 219.30211455 171.56115573 218.11981289 176.19140625 217.01171875 C178.76346833 216.10095578 179.90924763 215.30415811 181.57421875 213.16796875 C185.4345871 201.5868637 186.55519835 179.58558224 181.27734375 168.42578125 C179.40055594 165.93774603 178.59388485 165.41689722 175.63671875 164.66796875 C161.73298463 160.62119085 149.28471851 154.75797619 141.32421875 142.1953125 C135.54462409 131.50731208 135.33547805 119.96702238 138.4453125 108.4140625 C143.30669107 94.43549643 143.30669107 94.43549643 147.57421875 90.16796875 C148.16529733 86.57652392 147.66772597 85.3051004 145.58984375 82.2578125 C144.68219877 81.19471545 143.75927257 80.14454002 142.82421875 79.10546875 C142.33268311 78.54400146 141.84114746 77.98253418 141.3347168 77.40405273 C128.97776629 61.89087964 128.97776629 61.89087964 112.57421875 53.16796875 C110.06720902 54.22428211 110.06720902 54.22428211 107.51171875 55.85546875 C95.28459593 62.89383932 82.40207817 66.31799825 68.30859375 63.51953125 C57.49574398 60.27567632 49.51472949 53.73219104 43.57421875 44.16796875 C40.38936869 37.76365069 38.09913294 31.1528567 36.34765625 24.2265625 C35.45927527 21.86203332 34.53549943 20.7417769 32.57421875 19.16796875 C20.7695546 15.2330807 -4.05807104 13.50877799 -14.42578125 21.16796875 Z M-58.11328125 124.35546875 C-76.74881064 143.10110467 -84.69829316 167.68044158 -84.74487305 193.65649414 C-84.52041881 215.36483892 -76.32529658 235.51322405 -62.42578125 252.16796875 C-60.01808952 249.18467724 -58.44648423 246.21351531 -56.86328125 242.73046875 C-47.73840497 224.36889173 -32.72172124 211.70205363 -13.30859375 205.109375 C7.77073194 199.13975567 29.51205914 201.28758202 48.74609375 211.796875 C54.96964468 215.46534424 60.30732495 220.26182111 65.57421875 225.16796875 C66.47140625 224.64847656 67.36859375 224.12898437 68.29296875 223.59375 C79.15305516 217.46592602 90.15528089 212.98584101 102.57421875 211.16796875 C109.84657459 190.80537241 104.24696587 166.8192869 95.32421875 147.91796875 C91.75807159 141.10421917 87.39683554 135.13797392 82.57421875 129.16796875 C82.10757813 128.53632813 81.6409375 127.9046875 81.16015625 127.25390625 C68.51321031 110.88270629 46.18982158 99.75295361 26.05859375 96.4765625 C25.23875 96.37472656 24.41890625 96.27289063 23.57421875 96.16796875 C22.56875 96.03519531 21.56328125 95.90242188 20.52734375 95.765625 C-9.40291124 92.69673941 -36.68927111 103.55406861 -58.11328125 124.35546875 Z M-36.42578125 241.16796875 C-41.39418368 248.2799598 -47.75890514 258.03896819 -46.42578125 267.16796875 C-32.08880296 280.47061594 -9.48343952 285.34500277 9.38671875 285.35546875 C10.53720703 285.36771484 11.68769531 285.37996094 12.87304688 285.39257812 C19.13838061 285.40334947 24.58269196 285.03249062 30.57421875 283.16796875 C30.868125 281.605625 30.868125 281.605625 31.16796875 280.01171875 C34.13748579 265.36738353 39.69696221 253.05441724 49.10546875 241.40234375 C50.94041507 239.05653027 50.94041507 239.05653027 50.57421875 235.16796875 C48.60358403 232.76009945 46.06510305 231.01697133 43.57421875 229.16796875 C43.00703125 228.73226562 42.43984375 228.2965625 41.85546875 227.84765625 C16.50135029 210.16649469 -17.48052451 218.52316581 -36.42578125 241.16796875 Z M63.19921875 250.54296875 C51.37666075 264.71008466 45.02173234 282.68367748 46.57421875 301.16796875 C48.63522499 316.01365429 53.25154109 327.468194 62.57421875 339.16796875 C63.05632812 339.81507813 63.5384375 340.4621875 64.03515625 341.12890625 C74.09752907 353.9831513 90.85253696 361.53796983 106.69921875 363.85546875 C108.61734375 364.01015625 108.61734375 364.01015625 110.57421875 364.16796875 C111.21101563 364.22082031 111.8478125 364.27367187 112.50390625 364.328125 C129.86631119 365.08158786 146.45923798 358.29583122 159.57421875 347.16796875 C160.37601562 346.5646875 161.1778125 345.96140625 162.00390625 345.33984375 C173.97878933 335.22124954 180.99859433 319.36626723 183.26171875 304.10546875 C184.75671767 285.26848236 180.29062794 268.13048265 168.57421875 253.16796875 C168.04054688 252.46929687 167.506875 251.770625 166.95703125 251.05078125 C155.73024109 237.24558953 138.88179838 229.66893614 121.57421875 227.16796875 C98.9377688 225.60268232 78.62502281 234.19754945 63.19921875 250.54296875 Z " fill="#ADB5BD" transform="translate(181.42578125,23.83203125)"></path><path d="M0 0 C8.70624787 6.03386677 14.73762243 13.5796775 17.8359375 23.71484375 C18.02800781 24.33488281 18.22007812 24.95492187 18.41796875 25.59375 C20.82294017 37.79841803 18.1349984 49.08557262 11.55859375 59.39453125 C5.15488193 68.01993901 -4.43125281 73.51910562 -14.9609375 75.43359375 C-26.47021286 76.90286294 -37.0212839 74.38677753 -46.62109375 67.79296875 C-54.89407348 61.03225413 -60.04666092 52.16461264 -62.1640625 41.71484375 C-63.147256 30.25499824 -61.53221867 18.59914116 -53.921875 9.5546875 C-39.47996672 -5.5611765 -18.92509841 -11.23891223 0 0 Z M-40.1640625 20.71484375 C-44.26847854 26.94432726 -45.21603219 33.38359108 -44.1640625 40.71484375 C-41.9244208 48.40118805 -36.58290576 52.81548639 -29.7890625 56.58984375 C-22.7724015 58.7674282 -16.92841742 58.3749291 -10.30859375 55.1171875 C-4.97379104 51.62867353 -1.09969493 46.78527785 0.8359375 40.71484375 C1.70987569 33.34734159 1.40682221 26.75977116 -3.1640625 20.71484375 C-8.20615513 14.98044306 -14.19828117 12.45971095 -21.6640625 11.33984375 C-29.05625562 12.44867272 -35.26210463 14.91123042 -40.1640625 20.71484375 Z " fill="#ADB5BD" transform="translate(213.1640625,147.28515625)"></path><path d="M0 0 C2.92110848 0.87451065 4.22841977 2.01800001 5.87890625 4.5625 C6.90368677 7.41724574 7.04393408 8.97255022 6.2265625 11.89453125 C4.53881483 15.23578242 2.21718837 17.38903204 -0.55859375 19.8125 C-1.35885986 20.52865479 -1.35885986 20.52865479 -2.17529297 21.25927734 C-6.50046777 25.09890815 -10.9681393 28.75596647 -15.47265625 32.3828125 C-18.09384494 34.54007399 -20.61263656 36.77561 -23.12109375 39.0625 C-27.35769729 42.91880999 -31.7203006 46.56831948 -36.1953125 50.14453125 C-38.33185011 51.91024124 -40.3649001 53.69016959 -42.390625 55.57421875 C-42.94903076 56.08098145 -43.50743652 56.58774414 -44.08276367 57.10986328 C-45.16064033 58.09170719 -46.22329567 59.09063386 -47.2668457 60.10888672 C-50.17499999 62.72103495 -52.66791388 63.98312596 -56.5 64.328125 C-62.40749217 63.97116746 -65.52350046 60.34057323 -69.43359375 56.25 C-70.90805155 54.78174563 -72.38331718 53.31430209 -73.859375 51.84765625 C-74.57689941 51.12078613 -75.29442383 50.39391602 -76.03369141 49.64501953 C-78.96778132 46.71779298 -82.03168499 43.94874553 -85.12109375 41.1875 C-90.98855539 35.90997337 -90.98855539 35.90997337 -91.49609375 30.75 C-91.43988567 27.32130687 -91.1188295 26.55920655 -89.05859375 23.5625 C-86.12109375 21.5625 -86.12109375 21.5625 -82.80859375 20.8125 C-77.42559511 21.90734718 -74.96909837 24.78157629 -71.12109375 28.5625 C-69.27659303 30.28410373 -67.42167303 31.99408932 -65.56665039 33.7043457 C-62.74085962 36.31241335 -59.93137106 38.93773257 -57.12109375 41.5625 C-52.97700316 39.86209919 -49.87712754 36.92112355 -46.55859375 34 C-45.3029915 32.90780925 -44.04647122 31.81667303 -42.7890625 30.7265625 C-42.16821777 30.18805664 -41.54737305 29.64955078 -40.90771484 29.09472656 C-38.43404322 26.97327766 -35.90645273 24.92209442 -33.37109375 22.875 C-29.86225385 20.02791499 -26.46242738 17.10437448 -23.12109375 14.0625 C-22.30769531 13.33160156 -21.49429688 12.60070312 -20.65625 11.84765625 C-18.87922514 10.24586959 -17.11739586 8.62713899 -15.3671875 6.99609375 C-6.63984342 -0.76019674 -6.63984342 -0.76019674 0 0 Z " fill="#ADB5BD" transform="translate(336.12109375,287.4375)"></path></svg>