<svg xmlns="http://www.w3.org/2000/svg" width="375" height="375"><path d="M0 0 C0.75364334 -0.00807175 1.50728668 -0.01614349 2.2837677 -0.02445984 C3.87999179 -0.03828375 5.47624523 -0.04901348 7.07250977 -0.05688477 C8.6949945 -0.06837797 10.31744222 -0.08878769 11.93969727 -0.1184082 C28.70869336 -0.42448043 28.70869336 -0.42448043 35.33203125 4.23828125 C40.36127684 9.53222397 41.58504342 13.35874735 41.52734375 20.62890625 C41.52451385 21.3335199 41.52168396 22.03813354 41.51876831 22.76409912 C41.50760926 25.00566885 41.48251318 27.24683311 41.45703125 29.48828125 C41.44699589 31.01171296 41.43787101 32.53515096 41.4296875 34.05859375 C41.40768416 37.78528711 41.37318397 41.51174458 41.33203125 45.23828125 C42.48703125 45.35042969 43.64203125 45.46257813 44.83203125 45.578125 C49.22544919 46.13309322 53.17852475 47.29671365 57.33203125 48.80078125 C58.42028198 49.18907104 58.42028198 49.18907104 59.53051758 49.58520508 C67.4516939 52.50587662 74.86916802 56.31881557 82.33203125 60.23828125 C84.32976882 61.24279336 86.32896381 62.2444398 88.33203125 63.23828125 C88.87617676 62.67842529 89.42032227 62.11856934 89.98095703 61.54174805 C92.46497634 58.99513969 94.96081308 56.46043093 97.45703125 53.92578125 C98.31296875 53.04470703 99.16890625 52.16363281 100.05078125 51.25585938 C100.88867188 50.40830078 101.7265625 49.56074219 102.58984375 48.6875 C103.73670654 47.51707153 103.73670654 47.51707153 104.90673828 46.32299805 C109.52720716 42.35136691 113.65362152 40.80810983 119.70703125 40.80078125 C120.76664062 40.78144531 121.82625 40.76210938 122.91796875 40.7421875 C131.91332432 42.04929294 137.41752136 47.70048116 143.58203125 53.98828125 C144.3709375 54.76171875 145.15984375 55.53515625 145.97265625 56.33203125 C152.26838696 62.67030068 156.80780073 68.83600187 157.421875 78.015625 C157.04689437 87.29231967 150.54409711 93.22088539 144.171875 99.234375 C143.62200928 99.7612793 143.07214355 100.28818359 142.50561523 100.83105469 C141.4031099 101.88161119 140.28686568 102.91796337 139.15649414 103.93847656 C136.10850297 106.76780466 136.10850297 106.76780466 135.2578125 110.67578125 C136.62468038 113.93638244 138.26745672 116.98727611 140.01953125 120.05078125 C143.00689338 125.45754289 145.55439669 130.8844468 147.70703125 136.67578125 C147.94510498 137.31298096 148.18317871 137.95018066 148.4284668 138.60668945 C150.51933092 144.40576482 152.33203125 150.03857177 152.33203125 156.23828125 C153.72325195 156.19900513 153.72325195 156.19900513 155.14257812 156.15893555 C158.6166974 156.07321109 162.08967711 156.01079366 165.56445312 155.96362305 C167.06203048 155.93863118 168.55948776 155.90462498 170.05664062 155.86108398 C185.05222959 155.43620896 185.05222959 155.43620896 190.92407227 159.8503418 C196.46063368 165.30817978 197.49451409 170.4668974 197.5703125 177.90625 C197.57838425 178.65989334 197.58645599 179.41353668 197.59477234 180.1900177 C197.60859625 181.78624179 197.61932598 183.38249523 197.62719727 184.97875977 C197.63869047 186.6012445 197.65910019 188.22369222 197.6887207 189.84594727 C197.99535761 206.64588104 197.99535761 206.64588104 193.33203125 213.23828125 C189.64764152 217.04273503 186.47126396 219.16419596 181.05395508 219.35180664 C179.71564711 219.35164881 178.37733243 219.3460287 177.0390625 219.3359375 C175.98001961 219.33381508 175.98001961 219.33381508 174.89958191 219.33164978 C172.64785499 219.32605889 170.39622804 219.31350813 168.14453125 219.30078125 C166.6165379 219.29576507 165.08854298 219.29120237 163.56054688 219.28710938 C159.8176699 219.27609245 156.07486752 219.25883412 152.33203125 219.23828125 C152.20828125 220.41777344 152.08453125 221.59726563 151.95703125 222.8125 C150.17856818 236.87656129 143.15818413 252.49905194 135.33203125 264.23828125 C135.62276357 267.82308673 137.24161502 269.47398415 139.7890625 271.8828125 C140.48966797 272.56021484 141.19027344 273.23761719 141.91210938 273.93554688 C143.38836478 275.33430856 144.86492231 276.73275145 146.34179688 278.13085938 C151.40581229 283.02808197 155.68360227 287.27618946 156.86328125 294.484375 C156.85296875 295.53753906 156.84265625 296.59070313 156.83203125 297.67578125 C156.8475 299.25166016 156.8475 299.25166016 156.86328125 300.859375 C155.46770739 309.73563518 150.03606685 315.11019785 143.76953125 321.17578125 C142.61807617 322.32530273 142.61807617 322.32530273 141.44335938 323.49804688 C135.75476423 329.09737026 135.75476423 329.09737026 132.33203125 330.23828125 C130.7889855 314.4992146 130.7889855 314.4992146 134.5234375 309.02734375 C137.26953125 306.48828125 137.26953125 306.48828125 140.046875 304.37890625 C142.55122788 302.37099083 142.55122788 302.37099083 143.34765625 299.23046875 C143.32867332 295.59523834 142.65412315 294.66944289 140.14453125 292.11328125 C139.53222656 291.47132813 138.91992188 290.829375 138.2890625 290.16796875 C136.39623304 288.20615854 136.39623304 288.20615854 134.24731445 286.7199707 C131.31355702 282.91861388 131.7210975 279.28172598 131.73046875 274.6015625 C131.7218985 273.64871872 131.71332825 272.69587494 131.70449829 271.7141571 C131.69300925 269.69089933 131.69201312 267.66755893 131.70068359 265.64428711 C131.70691848 262.60573923 131.66040974 259.57125665 131.609375 256.53320312 C131.53874301 245.38169184 132.56639892 236.02593075 136.89501953 225.69897461 C138.4523733 221.94846668 139.44682672 218.27306225 140.30078125 214.31640625 C142.02711477 210.83758264 143.81746696 208.80199996 147.33203125 207.23828125 C152.51462379 206.54818497 157.67747765 206.57756839 162.89453125 206.61328125 C165.01430599 206.61714109 167.13323387 206.61360483 169.25291443 206.59268188 C171.17316818 206.57513499 173.09360214 206.58253489 175.01391602 206.59130859 C178.62191465 206.20743941 180.49343417 205.46825751 183.33203125 203.23828125 C184.99338122 198.25423133 184.55852476 193.0817219 184.58203125 187.86328125 C184.60265625 186.72632813 184.62328125 185.589375 184.64453125 184.41796875 C184.6496875 183.3196875 184.65484375 182.22140625 184.66015625 181.08984375 C184.6741748 179.58671631 184.6741748 179.58671631 184.68847656 178.05322266 C184.2724632 174.76785683 183.27415969 172.89733051 181.33203125 170.23828125 C178.3631801 168.75385567 175.65721771 169.11003924 172.34765625 169.09765625 C170.92316119 169.0793208 169.4986816 169.0597498 168.07421875 169.0390625 C165.83144168 169.01015821 163.58965477 168.98828292 161.34667969 168.98779297 C159.17944803 168.98444109 157.01449031 168.94979002 154.84765625 168.91015625 C153.55118164 168.90081055 152.25470703 168.89146484 150.91894531 168.88183594 C146.17160007 168.03007974 144.65357221 166.70991389 141.33203125 163.23828125 C140.04003906 160.73046875 140.04003906 160.73046875 139.28515625 158.11328125 C138.85396484 156.68242187 138.85396484 156.68242187 138.4140625 155.22265625 C138.13949219 154.2378125 137.86492187 153.25296875 137.58203125 152.23828125 C137.00518584 150.27957062 136.42710157 148.32122433 135.84765625 146.36328125 C135.60305664 145.49960938 135.35845703 144.6359375 135.10644531 143.74609375 C134.36339358 141.19755369 134.36339358 141.19755369 133.2565918 138.66333008 C131.91790443 135.15205953 131.99308896 131.63609366 131.89453125 127.92578125 C131.43331009 117.35472687 129.01787763 110.85862325 121.33203125 103.23828125 C124.6559262 99.21461894 128.13124309 95.39802091 131.87890625 91.765625 C132.50716309 91.15412598 133.13541992 90.54262695 133.78271484 89.91259766 C135.0531944 88.68338209 136.33206212 87.46277033 137.61962891 86.25146484 C140.15051356 83.79754437 142.05414356 81.89752544 143.43359375 78.625 C143.15533986 72.0860337 136.85032267 67.35441004 132.51953125 62.98828125 C131.82021484 62.25609375 131.12089844 61.52390625 130.40039062 60.76953125 C127.35365424 57.69144398 125.17165788 55.53010877 121.0390625 54.09375 C117.90953306 54.26083887 117.04479537 54.63498618 114.83203125 56.80078125 C114.166875 57.435 113.50171875 58.06921875 112.81640625 58.72265625 C111.9965625 59.5528125 111.17671875 60.38296875 110.33203125 61.23828125 C108.54619553 63.04090509 106.75947671 64.84262486 104.97070312 66.64233398 C103.72545828 67.9006172 102.48698138 69.1656396 101.25585938 70.43774414 C100.67771484 71.0280542 100.09957031 71.61836426 99.50390625 72.2265625 C98.73191895 73.02380737 98.73191895 73.02380737 97.94433594 73.8371582 C95.16558471 76.2519452 92.84761735 77.1660992 89.20703125 77.67578125 C83.83943636 77.06976247 80.03487902 74.79899417 75.33203125 72.23828125 C64.31761827 66.38497689 53.48831491 61.56330616 41.34765625 58.48046875 C40.47625 58.25617187 39.60484375 58.031875 38.70703125 57.80078125 C37.60488281 57.55521484 37.60488281 57.55521484 36.48046875 57.3046875 C33.25220472 55.70229463 31.18663137 53.26551113 29.33203125 50.23828125 C28.72021484 46.68310547 28.72021484 46.68310547 28.73046875 42.79296875 C28.72246246 42.10067169 28.71445618 41.40837463 28.70620728 40.69509888 C28.68327293 38.50055175 28.69255185 36.3078756 28.70703125 34.11328125 C28.71088572 31.91189894 28.70740721 29.71133127 28.68643188 27.51004028 C28.66885444 25.51832702 28.6762931 23.52643951 28.68505859 21.53466797 C28.31044849 18.03675263 27.83308559 16.66019294 25.33203125 14.23828125 C20.34798133 12.57693128 15.1754719 13.01178774 9.95703125 12.98828125 C8.82007813 12.96765625 7.683125 12.94703125 6.51171875 12.92578125 C5.4134375 12.920625 4.31515625 12.91546875 3.18359375 12.91015625 C2.18150879 12.90081055 1.17942383 12.89146484 0.14697266 12.88183594 C-3.27220616 13.31479353 -5.06027204 13.96592684 -7.66796875 16.23828125 C-8.40262649 19.30611216 -8.40262649 19.30611216 -8.26953125 22.84765625 C-8.285 24.15992187 -8.30046875 25.4721875 -8.31640625 26.82421875 C-8.310522 28.2122491 -8.30269324 29.6002725 -8.29296875 30.98828125 C-8.28786461 33.69219716 -8.30557284 36.39360681 -8.33203125 39.09765625 C-8.32357178 40.89928223 -8.32357178 40.89928223 -8.31494141 42.73730469 C-8.81956421 47.74165535 -10.25667298 51.67078382 -13.6796875 55.47265625 C-18.03727257 58.04733397 -22.61871094 59.16880792 -27.48046875 60.48828125 C-38.59937306 63.68087261 -48.44611299 67.9051678 -58.36328125 73.85546875 C-63.48651801 76.9294108 -66.64336075 78.12715784 -72.66796875 77.23828125 C-79.63599897 73.42827642 -84.71271579 67.23112335 -90.12304688 61.52929688 C-90.89197266 60.73845703 -91.66089844 59.94761719 -92.453125 59.1328125 C-93.142854 58.40940674 -93.83258301 57.68600098 -94.54321289 56.94067383 C-96.9921983 54.97850271 -98.5531775 54.45036689 -101.66796875 54.23828125 C-107.05011409 57.05218296 -111.19501795 61.36545879 -115.48046875 65.61328125 C-116.16044922 66.26039062 -116.84042969 66.9075 -117.54101562 67.57421875 C-120.49169328 70.49253603 -122.42432049 72.52277897 -123.77734375 76.49609375 C-123.65097907 79.66423689 -123.29354559 80.50275215 -121.10546875 82.73828125 C-120.47125 83.4034375 -119.83703125 84.06859375 -119.18359375 84.75390625 C-118.3534375 85.57375 -117.52328125 86.39359375 -116.66796875 87.23828125 C-114.86534491 89.02411697 -113.06362514 90.81083579 -111.26391602 92.59960938 C-110.0056328 93.84485422 -108.7406104 95.08333112 -107.46850586 96.31445312 C-106.8781958 96.89259766 -106.28788574 97.47074219 -105.6796875 98.06640625 C-105.14819092 98.58106445 -104.61669434 99.09572266 -104.0690918 99.62597656 C-101.00187772 103.15549072 -100.18682682 106.38522903 -100.31591797 111.08349609 C-100.96728079 115.07027023 -103.1148972 118.17261778 -105.23046875 121.55078125 C-111.30280001 131.83456806 -115.60093908 142.63663078 -118.7734375 154.1484375 C-119.24716797 155.86353516 -119.24716797 155.86353516 -119.73046875 157.61328125 C-119.96894531 158.59039062 -120.20742187 159.5675 -120.453125 160.57421875 C-122.17882922 164.35856049 -123.85426804 166.61208835 -127.66796875 168.23828125 C-132.85239508 168.9205733 -138.01268998 168.89899907 -143.23046875 168.86328125 C-145.35024349 168.85942141 -147.46917137 168.86295767 -149.58885193 168.88388062 C-151.50910568 168.90142751 -153.42953964 168.89402761 -155.34985352 168.88525391 C-158.95785215 169.26912309 -160.82937167 170.00830499 -163.66796875 172.23828125 C-165.32931872 177.22233117 -164.89446226 182.3948406 -164.91796875 187.61328125 C-164.93859375 188.75023437 -164.95921875 189.8871875 -164.98046875 191.05859375 C-164.985625 192.156875 -164.99078125 193.25515625 -164.99609375 194.38671875 C-165.00543945 195.38880371 -165.01478516 196.39088867 -165.02441406 197.42333984 C-164.6084007 200.70870567 -163.61009719 202.57923199 -161.66796875 205.23828125 C-158.6991176 206.72270683 -155.99315521 206.36652326 -152.68359375 206.37890625 C-151.25909869 206.3972417 -149.8346191 206.4168127 -148.41015625 206.4375 C-146.16737918 206.46640429 -143.92559227 206.48827958 -141.68261719 206.48876953 C-139.51538553 206.49212141 -137.35042781 206.52677248 -135.18359375 206.56640625 C-133.88711914 206.57575195 -132.59064453 206.58509766 -131.25488281 206.59472656 C-126.50642778 207.44668188 -124.99059472 208.76563858 -121.66796875 212.23828125 C-120.36010742 214.76196289 -120.36010742 214.76196289 -119.5859375 217.3984375 C-119.29396484 218.35685547 -119.00199219 219.31527344 -118.70117188 220.30273438 C-118.28254883 221.78676758 -118.28254883 221.78676758 -117.85546875 223.30078125 C-117.55705078 224.29400391 -117.25863281 225.28722656 -116.95117188 226.31054688 C-115.77090228 230.26698106 -114.64682732 234.22699433 -113.66796875 238.23828125 C-115.26562978 239.10455524 -116.87136819 239.9559459 -118.48046875 240.80078125 C-119.37378906 241.27644531 -120.26710937 241.75210938 -121.1875 242.2421875 C-123.66796875 243.23828125 -123.66796875 243.23828125 -126.66796875 242.23828125 C-127.70232073 239.86764217 -128.52840053 237.63231062 -129.29296875 235.17578125 C-129.50953125 234.53189453 -129.72609375 233.88800781 -129.94921875 233.22460938 C-131.45140682 228.57431728 -132.18027056 224.09900658 -132.66796875 219.23828125 C-134.05918945 219.27755737 -134.05918945 219.27755737 -135.47851562 219.31762695 C-138.9526349 219.40335141 -142.42561461 219.46576884 -145.90039062 219.51293945 C-147.39796798 219.53793132 -148.89542526 219.57193752 -150.39257812 219.61547852 C-165.38816709 220.04035354 -165.38816709 220.04035354 -171.26000977 215.6262207 C-176.79657118 210.16838272 -177.83045159 205.0096651 -177.90625 197.5703125 C-177.91432175 196.81666916 -177.92239349 196.06302582 -177.93070984 195.2865448 C-177.94453375 193.69032071 -177.95526348 192.09406727 -177.96313477 190.49780273 C-177.97462797 188.875318 -177.99503769 187.25287028 -178.0246582 185.63061523 C-178.33073043 168.86161914 -178.33073043 168.86161914 -173.66796875 162.23828125 C-168.37402603 157.20903566 -164.54750265 155.98526908 -157.27734375 156.04296875 C-156.5727301 156.04579865 -155.86811646 156.04862854 -155.14215088 156.05154419 C-152.90058115 156.06270324 -150.65941689 156.08779932 -148.41796875 156.11328125 C-146.89453704 156.12331661 -145.37109904 156.13244149 -143.84765625 156.140625 C-140.12096289 156.16262834 -136.39450542 156.19712853 -132.66796875 156.23828125 C-132.55582031 155.08328125 -132.44367188 153.92828125 -132.328125 152.73828125 C-131.77315678 148.34486331 -130.60953635 144.39178775 -129.10546875 140.23828125 C-128.71717896 139.15003052 -128.71717896 139.15003052 -128.32104492 138.03979492 C-125.40037338 130.1186186 -121.58743443 122.70114448 -117.66796875 115.23828125 C-116.66345664 113.24054368 -115.6618102 111.24134869 -114.66796875 109.23828125 C-115.22782471 108.69413574 -115.78768066 108.14999023 -116.36450195 107.58935547 C-118.91111031 105.10533616 -121.44581907 102.60949942 -123.98046875 100.11328125 C-124.86154297 99.25734375 -125.74261719 98.40140625 -126.65039062 97.51953125 C-127.49794922 96.68164062 -128.34550781 95.84375 -129.21875 94.98046875 C-129.99903564 94.21589355 -130.77932129 93.45131836 -131.58325195 92.66357422 C-135.61154556 87.97718603 -137.08678579 83.87266677 -137.04296875 77.73828125 C-137.05457031 76.1140625 -137.05457031 76.1140625 -137.06640625 74.45703125 C-136.04389716 66.19676175 -130.15124872 60.99875705 -124.66796875 55.23828125 C-123.88292969 54.41199219 -123.09789062 53.58570313 -122.2890625 52.734375 C-115.56494939 45.8282216 -110.435146 41.14709098 -100.41796875 40.92578125 C-99.3196875 40.88839844 -98.22140625 40.85101563 -97.08984375 40.8125 C-87.56579394 41.99757012 -81.94370268 49.81248381 -75.80859375 56.47851562 C-74.72964844 57.60676758 -74.72964844 57.60676758 -73.62890625 58.7578125 C-72.98743652 59.44979736 -72.3459668 60.14178223 -71.68505859 60.85473633 C-69.72366064 62.50777132 -69.72366064 62.50777132 -67.12084961 62.05810547 C-63.80370294 60.94941844 -60.87753655 59.27915701 -57.85546875 57.55078125 C-52.44870711 54.56341912 -47.0218032 52.01591581 -41.23046875 49.86328125 C-40.59326904 49.62520752 -39.95606934 49.38713379 -39.29956055 49.1418457 C-33.50048518 47.05098158 -27.86767823 45.23828125 -21.66796875 45.23828125 C-21.69415283 44.31080078 -21.72033691 43.38332031 -21.74731445 42.42773438 C-21.83303891 38.9536151 -21.89545634 35.48063539 -21.94262695 32.00585938 C-21.96761882 30.50828202 -22.00162502 29.01082474 -22.04516602 27.51367188 C-22.47004104 12.51808291 -22.47004104 12.51808291 -18.0559082 6.64624023 C-12.59807022 1.10967882 -7.4393526 0.07579841 0 0 Z " fill="#ADB5BD" transform="translate(177.66796875,-0.23828125)"></path><path d="M0 0 C1.06674706 -0.00929787 1.06674706 -0.00929787 2.15504456 -0.01878357 C3.65356076 -0.02586159 5.15215594 -0.02274289 6.65063477 -0.01000977 C8.93198796 0.00384904 11.20922774 -0.03022368 13.49023438 -0.06835938 C14.95182391 -0.06931082 16.41341854 -0.06745038 17.875 -0.0625 C19.1942749 -0.0632251 20.5135498 -0.0639502 21.87280273 -0.06469727 C26.57695747 0.75290779 28.1632403 2.2257403 31.50390625 5.56640625 C32.66330456 7.88520288 32.63018787 9.20818016 32.6325407 11.78934479 C32.63576515 12.68035936 32.6389896 13.57137393 32.64231175 14.48938894 C32.63998885 15.96689178 32.63998885 15.96689178 32.63761902 17.47424316 C32.63988458 18.51584673 32.64215013 19.5574503 32.64448434 20.63061762 C32.65084763 24.1437301 32.64999349 27.65680424 32.64916992 31.16992188 C32.65215993 33.67925568 32.65556209 36.18858902 32.65934753 38.69792175 C32.66728566 44.81980081 32.67040284 50.94166567 32.67095991 57.0635494 C32.67143451 62.03726614 32.67348642 67.0109797 32.67666054 71.98469543 C32.68546949 86.07381917 32.69007946 100.16293528 32.68933006 114.25206178 C32.68929011 115.0120894 32.68925015 115.77211702 32.68920898 116.55517578 C32.6891681 117.31612692 32.68912722 118.07707807 32.6890851 118.86108834 C32.68867841 131.2009889 32.69825306 143.54085898 32.71234735 155.88075072 C32.72669192 168.53922478 32.73361862 181.19768396 32.73275357 193.85616636 C32.73242097 200.96782944 32.73519573 208.07946055 32.74593163 215.19111633 C32.75595767 221.87557135 32.755721 228.55994742 32.74841499 235.24440956 C32.74736392 237.70433462 32.74976268 240.16426381 32.75577545 242.62418175 C32.76342484 245.96905888 32.75889775 249.31369781 32.75114441 252.65856934 C32.75628797 253.64357123 32.76143154 254.62857312 32.76673096 255.64342356 C32.75983277 256.97994541 32.75983277 256.97994541 32.75279522 258.34346771 C32.75301259 259.1162536 32.75322996 259.88903949 32.75345391 260.68524313 C32.50390625 262.56640625 32.50390625 262.56640625 30.50390625 264.56640625 C28.65113831 264.84056091 28.65113831 264.84056091 26.37719727 264.87280273 C25.10060997 264.89678383 25.10060997 264.89678383 23.79823303 264.92124939 C22.41697487 264.92929344 22.41697487 264.92929344 21.0078125 264.9375 C20.06332748 264.94652847 19.11884247 264.95555695 18.14573669 264.96485901 C16.1459369 264.97938195 14.14608936 264.9882533 12.14624023 264.99194336 C9.08170843 265.00384681 6.01918502 265.05301784 2.95507812 265.10351562 C1.01433277 265.11297857 -0.92642498 265.12021422 -2.8671875 265.125 C-3.78600204 265.14453232 -4.70481659 265.16406464 -5.651474 265.18418884 C-6.50568436 265.17811111 -7.35989471 265.17203339 -8.23999023 265.16577148 C-9.36678444 265.17337746 -9.36678444 265.17337746 -10.51634216 265.18113708 C-12.49609375 264.56640625 -12.49609375 264.56640625 -14.09601879 262.65385437 C-16.08914745 258.25860303 -15.91066718 254.32640697 -15.87704468 249.55250549 C-15.88172465 248.53566223 -15.88640462 247.51881896 -15.89122641 246.47116226 C-15.90320465 243.05950009 -15.89370786 239.64823751 -15.88427734 236.23657227 C-15.8883418 233.7923967 -15.89368297 231.34822297 -15.90020752 228.90405273 C-15.91247974 222.95164093 -15.91066575 216.99938627 -15.9019696 211.04698057 C-15.89519394 206.20875473 -15.89427582 201.37056069 -15.89754105 196.53233147 C-15.89800075 195.8436763 -15.89846044 195.15502114 -15.89893407 194.44549764 C-15.89989325 193.04648669 -15.90086589 191.64747575 -15.90185185 190.24846482 C-15.91040675 177.12938687 -15.90057039 164.01037182 -15.88445075 150.89130419 C-15.87105045 139.63705865 -15.87337307 128.38290596 -15.88720703 117.12866211 C-15.90326624 104.05802298 -15.90957962 90.98743899 -15.90037024 77.91679138 C-15.8994146 76.52262653 -15.89847149 75.12846167 -15.89754105 73.7342968 C-15.89707822 73.04835255 -15.89661539 72.36240831 -15.89613854 71.65567787 C-15.89354945 66.82435347 -15.89791797 61.99306406 -15.90497971 57.16174507 C-15.91427849 50.65695974 -15.90764557 44.15232261 -15.89029694 37.64754486 C-15.88632659 35.25864135 -15.88747546 32.86972309 -15.89408493 30.48082542 C-15.90226868 27.22278042 -15.89201654 23.9652996 -15.87704468 20.70729065 C-15.88373684 19.75933217 -15.89042901 18.81137369 -15.89732397 17.8346892 C-15.83993111 11.40650444 -14.84657533 7.04463983 -10.27709961 2.22680664 C-6.67741604 0.07761447 -4.17983291 0.03448918 0 0 Z M-2.49609375 13.56640625 C-2.49609375 92.43640625 -2.49609375 171.30640625 -2.49609375 252.56640625 C5.09390625 252.56640625 12.68390625 252.56640625 20.50390625 252.56640625 C20.50390625 173.69640625 20.50390625 94.82640625 20.50390625 13.56640625 C12.91390625 13.56640625 5.32390625 13.56640625 -2.49609375 13.56640625 Z " fill="#ADB5BD" transform="translate(266.49609375,110.43359375)"></path><path d="M0 0 C1.80984375 -0.02416992 1.80984375 -0.02416992 3.65625 -0.04882812 C10.05593869 -0.05234444 15.03285575 0.06621287 20.625 3.3125 C24.75983783 7.72299369 24.7722389 12.16512868 24.76544189 17.93540955 C24.76841302 18.71919261 24.77138414 19.50297567 24.7744453 20.31050974 C24.78313908 22.94521709 24.7846411 25.57987904 24.78613281 28.21459961 C24.79076042 30.1001546 24.795785 31.98570864 24.80117798 33.8712616 C24.81430752 38.9992878 24.82074776 44.12730091 24.82518864 49.25534129 C24.82811783 52.45700365 24.83222229 55.6586624 24.83669281 58.86032295 C24.85036779 68.87162031 24.86003504 78.88290947 24.8638947 88.89421552 C24.86837879 100.46239062 24.88594298 112.03044776 24.9148953 123.59858698 C24.93648401 132.53367034 24.94659744 141.46872045 24.94793582 150.40382963 C24.94898566 155.74381864 24.95493161 161.08369675 24.97275543 166.42365837 C24.98918807 171.44445553 24.99141509 176.46505787 24.98261642 181.48587227 C24.98184353 183.33057806 24.98622188 185.17529412 24.99607468 187.01997375 C25.0087194 189.53441926 25.00295855 192.04816687 24.99249268 194.56260681 C25.00054908 195.29597116 25.00860548 196.02933551 25.01690602 196.78492302 C24.98632146 199.91736675 24.79248086 202.01888378 23.22576618 204.76554298 C21.18392512 206.73874832 20.18040353 206.81358707 17.36889648 206.81420898 C16.51468613 206.82358994 15.66047577 206.83297089 14.78038025 206.84263611 C13.8615657 206.83140213 12.94275116 206.82016815 11.99609375 206.80859375 C11.05065201 206.81004898 10.10521027 206.81150421 9.13111877 206.81300354 C7.13303545 206.8113437 5.13493946 206.79977297 3.13696289 206.77905273 C0.07057715 206.75007633 -2.99408296 206.75844606 -6.06054688 206.77148438 C-8.00000844 206.76524784 -9.93946453 206.75685757 -11.87890625 206.74609375 C-13.26016441 206.75049721 -13.26016441 206.75049721 -14.66932678 206.75498962 C-15.52038498 206.74230545 -16.37144318 206.72962128 -17.24829102 206.71655273 C-17.99869156 206.71114975 -18.7490921 206.70574677 -19.52223206 206.70018005 C-21.375 206.3125 -21.375 206.3125 -23.375 203.3125 C-23.57473437 200.70292596 -23.65760617 198.19942229 -23.64915466 195.5891571 C-23.65439134 194.79453451 -23.65962802 193.99991192 -23.66502339 193.18120986 C-23.68006508 190.50967215 -23.68072945 187.83832526 -23.68139648 185.16674805 C-23.68901521 183.25487951 -23.69744221 181.34301404 -23.70661926 179.43115234 C-23.72860039 174.23067388 -23.7373681 169.03025424 -23.74244571 163.82973456 C-23.74608523 160.5818186 -23.7523232 157.33391814 -23.7594471 154.08600807 C-23.78395485 142.75825954 -23.79699621 131.43055689 -23.80053711 120.1027832 C-23.80417267 109.53892516 -23.83406618 98.97535761 -23.87594169 88.41158837 C-23.91061816 79.34653083 -23.9260851 70.28156966 -23.92678314 61.21644622 C-23.92757691 55.80030594 -23.93636109 50.38446136 -23.96478081 44.96838951 C-23.9909158 39.87360698 -23.99319211 34.77936626 -23.97712517 29.68454742 C-23.975307 27.8148741 -23.98203452 25.94516995 -23.99794388 24.07556343 C-24.01834801 21.52199676 -24.0078872 18.97033579 -23.98973083 16.41679382 C-24.0029308 15.67758231 -24.01613077 14.9383708 -24.02973074 14.17675894 C-23.9371715 8.47396756 -22.28250759 6.16752703 -18.375 2.3125 C-12.74383624 -0.83259498 -6.26866873 -0.01663659 0 0 Z M-10.375 13.3125 C-10.375 73.0425 -10.375 132.7725 -10.375 194.3125 C-3.115 194.3125 4.145 194.3125 11.625 194.3125 C11.625 134.5825 11.625 74.8525 11.625 13.3125 C4.365 13.3125 -2.895 13.3125 -10.375 13.3125 Z " fill="#ADB5BD" transform="translate(216.375,168.6875)"></path><path d="M0 0 C1.44215715 -0.01151391 2.88427187 -0.03195689 4.32617188 -0.06152344 C6.41671519 -0.10437323 8.50599492 -0.12039145 10.59692383 -0.13061523 C11.84513916 -0.14519775 13.09335449 -0.15978027 14.37939453 -0.17480469 C18.54339023 0.38766052 20.64661403 1.62155812 23.85864258 4.29516602 C25.93833402 7.52465569 26.10973122 10.11935357 26.11260986 13.91908264 C26.11824951 15.06457077 26.12388916 16.2100589 26.12969971 17.39025879 C26.12565125 18.64286499 26.12160278 19.89547119 26.11743164 21.18603516 C26.12014238 22.52164399 26.12370378 23.85725133 26.12805176 25.19285583 C26.13716734 28.81670908 26.13363519 32.44044841 26.12729359 36.06430364 C26.12223035 39.8558961 26.12692584 43.64747881 26.13006592 47.43907166 C26.13370417 53.80526481 26.12890969 60.17141155 26.11938477 66.53759766 C26.1084958 73.90055783 26.11202954 81.26340727 26.12303758 88.62636477 C26.13210889 94.94661949 26.13339664 101.26684085 26.12816024 107.58709997 C26.12504028 111.36261558 26.124632 115.13807911 26.13123322 118.91359138 C26.13700396 122.46192049 26.13301486 126.01010656 26.1214447 129.55842018 C26.1175323 131.48414538 26.12348577 133.40988266 26.12969971 135.33560181 C26.12124023 137.04960426 26.12124023 137.04960426 26.11260986 138.79823303 C26.11185581 139.79318315 26.11110176 140.78813326 26.11032486 141.81323338 C25.85864258 144.29516602 25.85864258 144.29516602 23.85864258 147.29516602 C22.00587463 147.68284607 22.00587463 147.68284607 19.73193359 147.69921875 C18.4553463 147.71824501 18.4553463 147.71824501 17.15296936 147.73765564 C15.7717112 147.73325218 15.7717112 147.73325218 14.36254883 147.72875977 C12.9458213 147.73662254 12.9458213 147.73662254 11.50047302 147.74464417 C9.50065088 147.75107479 7.50079097 147.74971396 5.50097656 147.74121094 C2.43657164 147.73270882 -0.62596538 147.76143506 -3.69018555 147.79321289 C-5.63094019 147.7948251 -7.57169815 147.79424699 -9.51245117 147.79125977 C-10.89067299 147.80811073 -10.89067299 147.80811073 -12.29673767 147.82530212 C-13.15094803 147.81592117 -14.00515839 147.80654022 -14.88525391 147.796875 C-16.01204811 147.79662575 -16.01204811 147.79662575 -17.16160583 147.79637146 C-20.00697511 147.0760212 -20.64093743 145.77563773 -22.14135742 143.29516602 C-22.51888084 140.7242136 -22.51888084 140.7242136 -22.52230835 137.76063538 C-22.53076782 136.63486588 -22.53922729 135.50909637 -22.54794312 134.34921265 C-22.54187042 133.11845001 -22.53579773 131.88768738 -22.52954102 130.61962891 C-22.53479797 129.32009781 -22.54005493 128.02056671 -22.54547119 126.68165588 C-22.55914536 123.11960176 -22.55384552 119.55780838 -22.54433393 115.99574971 C-22.5367362 112.26648206 -22.54378341 108.53723667 -22.54849243 104.80796814 C-22.55395034 98.5443013 -22.5467582 92.28074057 -22.5324707 86.01708984 C-22.51615117 78.77908887 -22.52142736 71.5413415 -22.53794992 64.30334669 C-22.55157233 58.08665679 -22.55348056 51.87004315 -22.54563391 45.65334314 C-22.54096061 41.94145613 -22.54032291 38.22968824 -22.55024338 34.51780891 C-22.56053353 30.37841957 -22.54626334 26.23946596 -22.52954102 22.10009766 C-22.53561371 20.87135925 -22.5416864 19.64262085 -22.54794312 18.37664795 C-22.53948364 17.24805862 -22.53102417 16.1194693 -22.52230835 14.9566803 C-22.52117727 13.97832246 -22.5200462 12.99996462 -22.51888084 11.99195957 C-21.89984774 7.56997038 -19.54710906 4.13329238 -16.14135742 1.29516602 C-10.96136956 -0.4314966 -5.42297799 0.03015843 0 0 Z M-9.14135742 13.29516602 C-9.14135742 53.55516602 -9.14135742 93.81516602 -9.14135742 135.29516602 C-1.88135742 135.29516602 5.37864258 135.29516602 12.85864258 135.29516602 C12.85864258 95.03516602 12.85864258 54.77516602 12.85864258 13.29516602 C5.59864258 13.29516602 -1.66135742 13.29516602 -9.14135742 13.29516602 Z " fill="#ADB5BD" transform="translate(156.141357421875,227.704833984375)"></path><path d="M0 0 C3.62680759 1.88896228 4.00939254 3.52026181 5.29931641 7.26928711 C6.44481996 11.01831668 7.35286959 14.7960924 8.1875 18.625 C8.36474609 19.38876953 8.54199219 20.15253906 8.72460938 20.93945312 C9.74527015 25.54621932 10.32665514 29.81390213 10 34.5625 C8.4375 36.5625 8.4375 36.5625 6 37.5625 C2.375 37.4375 2.375 37.4375 -1 36.5625 C-1.66 35.5725 -2.32 34.5825 -3 33.5625 C-3.25056152 34.13991943 -3.50112305 34.71733887 -3.75927734 35.31225586 C-14.58628364 60.10143559 -27.9437763 82.34230539 -46 102.5625 C-46.47405273 103.0982666 -46.94810547 103.6340332 -47.43652344 104.18603516 C-58.83183961 117.01623249 -71.27830381 128.27026991 -85 138.5625 C-85.55768066 138.98241211 -86.11536133 139.40232422 -86.68994141 139.83496094 C-135.00324444 175.95363102 -135.00324444 175.95363102 -155 177.125 C-158 176.5625 -158 176.5625 -159.9375 174.875 C-161.22581882 172.07101197 -161.60872071 170.60610356 -161 167.5625 C-157.69986992 164.5582743 -154.35020323 162.59911544 -150.30859375 160.75 C-149.20862061 160.23800049 -148.10864746 159.72600098 -146.9753418 159.19848633 C-145.807854 158.65861084 -144.64036621 158.11873535 -143.4375 157.5625 C-126.25497762 149.48195817 -110.14164381 140.03803742 -95 128.5625 C-94.42588379 128.13114746 -93.85176758 127.69979492 -93.26025391 127.25537109 C-84.34757123 120.52849376 -76.052643 113.29213587 -68 105.5625 C-67.48695313 105.07668457 -66.97390625 104.59086914 -66.4453125 104.09033203 C-58.45846406 96.50637347 -51.59871491 88.36954978 -45 79.5625 C-44.29101562 78.63695312 -43.58203125 77.71140625 -42.8515625 76.7578125 C-35.40549877 66.83953788 -29.19720931 56.19000162 -23.625 45.125 C-23.30337891 44.48731689 -22.98175781 43.84963379 -22.65039062 43.19262695 C-20.46025058 38.74462848 -18.68353638 34.22579248 -17 29.5625 C-18.093125 29.789375 -19.18625 30.01625 -20.3125 30.25 C-24 30.5625 -24 30.5625 -25.875 29.4375 C-27.27921026 27.09714956 -27.71427751 25.27686366 -28 22.5625 C-24.89707564 16.58402073 -18.11713645 11.73023038 -13.25 7.125 C-12.58806641 6.49730713 -11.92613281 5.86961426 -11.24414062 5.22290039 C-10.61185547 4.63500732 -9.97957031 4.04711426 -9.328125 3.44140625 C-8.7599707 2.9110376 -8.19181641 2.38066895 -7.60644531 1.83422852 C-4.96939015 -0.25337336 -3.2990459 -0.48111086 0 0 Z " fill="#ADB5BD" transform="translate(216,87.4375)"></path><path d="M0 0 C1.07667183 -0.00855011 1.07667183 -0.00855011 2.1750946 -0.01727295 C3.69573492 -0.02672452 5.21639574 -0.03325756 6.73706055 -0.03710938 C9.05489264 -0.04679425 11.37183 -0.0778058 13.68945312 -0.109375 C15.16796349 -0.11590737 16.6464802 -0.12115692 18.125 -0.125 C18.81475418 -0.1373468 19.50450836 -0.1496936 20.21516418 -0.16241455 C24.58510866 -0.14235705 27.42821151 0.31185151 30.76171875 3.203125 C33.32480863 8.2157957 34.13914195 11.91112808 34.14990234 17.61962891 C34.1551593 18.32463028 34.16041626 19.02963165 34.16583252 19.7559967 C34.17893394 22.06412537 34.17033207 24.37155301 34.16015625 26.6796875 C34.16217938 28.29438407 34.16509281 29.90907974 34.16885376 31.52377319 C34.17326334 34.89777376 34.16688864 38.27153516 34.15283203 41.64550781 C34.13571325 45.96423107 34.14560673 50.28239605 34.16354942 54.60109901 C34.17440087 57.9314493 34.17093518 61.26166764 34.16316605 64.59202194 C34.16116922 66.1843917 34.1636051 67.77677356 34.17060471 69.36912918 C34.17824492 71.59487834 34.16658142 73.81972782 34.14990234 76.04541016 C34.14751556 77.31003082 34.14512878 78.57465149 34.14266968 79.87759399 C33.72825051 83.49528778 33.08903191 85.41033697 30.76171875 88.203125 C28.78196716 88.81785583 28.78196716 88.81785583 26.50561523 88.80249023 C25.65140488 88.80856796 24.79719452 88.81464569 23.917099 88.82090759 C22.99828445 88.80137527 22.07946991 88.78184296 21.1328125 88.76171875 C20.18737076 88.75938736 19.24192902 88.75705597 18.26783752 88.75465393 C16.26969376 88.74491111 14.27157786 88.72311172 12.27368164 88.69018555 C9.20743152 88.64075739 6.14278444 88.62870529 3.07617188 88.62304688 C1.1367016 88.60896206 -0.80275469 88.59275808 -2.7421875 88.57421875 C-4.12344566 88.5661747 -4.12344566 88.5661747 -5.53260803 88.55796814 C-6.38366623 88.54198074 -7.23472443 88.52599335 -8.11157227 88.50952148 C-9.23717308 88.49356178 -9.23717308 88.49356178 -10.38551331 88.47727966 C-12.23828125 88.203125 -12.23828125 88.203125 -14.23828125 86.203125 C-14.45224945 83.70619821 -14.54237711 81.3187001 -14.54467773 78.81933594 C-14.55716301 77.67755638 -14.55716301 77.67755638 -14.56990051 76.51271057 C-14.59406253 73.98758881 -14.6027814 71.46272524 -14.609375 68.9375 C-14.61833882 67.18353191 -14.62746061 65.42956462 -14.63673401 63.67559814 C-14.65324493 59.99351136 -14.66092755 56.3115157 -14.66381836 52.62939453 C-14.66919493 47.91697936 -14.70683535 43.20542439 -14.75256252 38.4932518 C-14.78235043 34.86776632 -14.78954234 31.24248716 -14.79054451 27.61688995 C-14.79474579 25.88017093 -14.80717647 24.14345124 -14.82806206 22.40685272 C-14.85500491 19.97209666 -14.85014311 17.53932262 -14.83764648 15.10449219 C-14.85248077 14.39049759 -14.86731506 13.67650299 -14.88259888 12.94087219 C-14.80052956 7.30847942 -13.08207491 5.01887964 -9.23828125 1.203125 C-6.27564781 -0.27819172 -3.24970197 0.01984809 0 0 Z M-2.23828125 12.203125 C-2.23828125 33.323125 -2.23828125 54.443125 -2.23828125 76.203125 C5.35171875 76.203125 12.94171875 76.203125 20.76171875 76.203125 C20.76171875 55.083125 20.76171875 33.963125 20.76171875 12.203125 C13.17171875 12.203125 5.58171875 12.203125 -2.23828125 12.203125 Z " fill="#ADB5BD" transform="translate(90.23828125,286.796875)"></path><path d="M0 0 C0.79560764 2.91499943 1.25322499 5.74561419 1.5625 8.75 C1.64628906 9.54921875 1.73007813 10.3484375 1.81640625 11.171875 C1.87699219 11.77515625 1.93757813 12.3784375 2 13 C0.85144531 13.27972656 -0.29710937 13.55945313 -1.48046875 13.84765625 C-21.22045788 18.85729697 -38.26412096 28.07114939 -49.13012695 45.94506836 C-54.66111137 55.38643705 -59.11732545 65.72729665 -59.1328125 76.8359375 C-59.13410156 77.73570312 -59.13539062 78.63546875 -59.13671875 79.5625 C-59.13285156 80.490625 -59.12898438 81.41875 -59.125 82.375 C-59.12886719 83.29539062 -59.13273437 84.21578125 -59.13671875 85.1640625 C-59.1294994 90.21760707 -58.86435917 95.01964477 -58 100 C-59.6209213 101.17232685 -61.24686833 102.3377077 -62.875 103.5 C-64.23238281 104.47453125 -64.23238281 104.47453125 -65.6171875 105.46875 C-68 107 -68 107 -70 107 C-75.23505072 86.15328016 -74.47038635 65.59017061 -65 46 C-64.35417969 44.63101563 -64.35417969 44.63101563 -63.6953125 43.234375 C-53.46833896 23.01154596 -35.80190097 10.08956565 -14.72265625 2.87890625 C-9.86735239 1.48691927 -5.01727423 0.55747491 0 0 Z " fill="#ADB5BD" transform="translate(178,105)"></path><path d="M0 0 C0.495 0.99 0.495 0.99 1 2 C-2.43318995 6.10308067 -5.92951253 9.97271094 -9.83984375 13.625 C-10.52167725 14.27202881 -11.20351074 14.91905762 -11.90600586 15.58569336 C-13.29054279 16.89274659 -14.69104978 18.18310801 -16.10766602 19.45532227 C-20.18390732 23.30058613 -20.18390732 23.30058613 -21.25390625 28.6953125 C-19.7698455 32.60657542 -18.25749313 33.83301146 -14.9375 36.3125 C-11.34119613 39.60186471 -9.71672698 41.8375832 -9.33984375 46.64453125 C-9.26623989 51.12378879 -9.56312199 55.54384429 -10 60 C-14.93654404 57.80067134 -18.2201212 54.1480312 -22 50.375 C-22.7115625 49.68792969 -23.423125 49.00085938 -24.15625 48.29296875 C-30.31480845 42.16887985 -34.49863883 36.0604119 -35.08984375 27.22265625 C-34.77191894 19.3574728 -30.20884546 14.45301009 -25 9 C-24.21625 8.01 -23.4325 7.02 -22.625 6 C-19.28910213 3.45836352 -17.5990861 3.82411154 -13.55859375 4.08984375 C-8.74585352 3.92084676 -4.39642689 1.84074696 0 0 Z " fill="#ADB5BD" transform="translate(75,270)"></path><path d="M0 0 C4.46663013 2.4544783 6.37622801 5.68532722 7.8125 10.5 C8.44555877 15.7453441 7.67299421 19.06130208 4.8125 23.5 C-0.3629603 28.17053735 -3.58118944 28.85288022 -10.421875 28.78125 C-15.31576017 28.28356676 -17.8650622 25.95468158 -21.0625 22.4375 C-23.14766521 16.99290195 -23.18799131 10.97489956 -21 5.5625 C-15.10384899 -1.14691322 -8.52727206 -3.61136335 0 0 Z M-9.1875 11.5 C-9.5175 12.49 -9.8475 13.48 -10.1875 14.5 C-8.7025 15.49 -8.7025 15.49 -7.1875 16.5 C-6.5275 16.17 -5.8675 15.84 -5.1875 15.5 C-5.5175 14.18 -5.8475 12.86 -6.1875 11.5 C-7.1775 11.5 -8.1675 11.5 -9.1875 11.5 Z " fill="#ADB5BD" transform="translate(353.1875,15.5)"></path><path d="M0 0 C3.62011046 2.33296007 5.89022378 4.96794755 7.8125 8.8125 C8.33907873 14.09555214 8.45441122 18.48112857 6.125 23.3125 C2.06015156 27.70693074 -0.65139573 28.99907624 -6.625 29.25 C-11.57305356 29.11014923 -14.42269408 28.20082532 -18.1875 24.8125 C-21.0425872 21.56360767 -22.07406554 18.96953148 -22.5 14.625 C-22.11457229 9.92278199 -21.08991122 6.56043157 -18.1875 2.8125 C-12.58483842 -1.52622057 -6.68841813 -2.49176362 0 0 Z M-8.1875 11.8125 C-8.5175 13.1325 -8.8475 14.4525 -9.1875 15.8125 C-8.1975 16.1425 -7.2075 16.4725 -6.1875 16.8125 C-5.5275 15.8225 -4.8675 14.8325 -4.1875 13.8125 C-4.5175 13.1525 -4.8475 12.4925 -5.1875 11.8125 C-6.1775 11.8125 -7.1675 11.8125 -8.1875 11.8125 Z " fill="#ADB5BD" transform="translate(36.1875,15.1875)"></path><path d="M0 0 C1.875 -0.36328125 1.875 -0.36328125 4 -0.3125 C4.70125 -0.30863281 5.4025 -0.30476562 6.125 -0.30078125 C8 -0 8 -0 10 2 C10.30078125 3.875 10.30078125 3.875 10.3125 6 C10.32925781 6.70125 10.34601563 7.4025 10.36328125 8.125 C10.18345703 9.053125 10.18345703 9.053125 10 10 C6.53076119 12.31282587 5.07794425 12.42478586 1 12 C-0.875 10.875 -0.875 10.875 -2 9 C-2.42478586 4.92205575 -2.31282587 3.46923881 0 0 Z " fill="#ADB5BD" transform="translate(365,0)"></path><path d="M0 0 C0.70125 -0.01675781 1.4025 -0.03351562 2.125 -0.05078125 C2.74375 0.06910156 3.3625 0.18898438 4 0.3125 C6.31282587 3.78173881 6.42478586 5.23455575 6 9.3125 C4.875 11.1875 4.875 11.1875 3 12.3125 C-1.07794425 12.73728586 -2.53076119 12.62532587 -6 10.3125 C-6.36328125 8.4375 -6.36328125 8.4375 -6.3125 6.3125 C-6.30669922 5.260625 -6.30669922 5.260625 -6.30078125 4.1875 C-5.68286056 0.33552686 -3.41080866 0.01880961 0 0 Z " fill="#ADB5BD" transform="translate(6,-0.3125)"></path><path d="M0 0 C3.875 0.875 3.875 0.875 5 2 C5.08631874 3.34267413 5.10706473 4.68974322 5.09765625 6.03515625 C5.09443359 6.84404297 5.09121094 7.65292969 5.08789062 8.48632812 C5.07951172 9.33646484 5.07113281 10.18660156 5.0625 11.0625 C5.05798828 11.91650391 5.05347656 12.77050781 5.04882812 13.65039062 C5.03700373 15.76695663 5.01906769 17.88348685 5 20 C4.25520386 19.35526733 4.25520386 19.35526733 3.49536133 18.69750977 C0.90245763 16.45424366 -1.65046894 14.25094538 -4.4375 12.25 C-4.953125 11.8375 -5.46875 11.425 -6 11 C-6 10.34 -6 9.68 -6 9 C-5.34 9 -4.68 9 -4 9 C-2.47700477 6.06279492 -1.19899698 3.0831351 0 0 Z " fill="#ADB5BD" transform="translate(236,122)"></path></svg>