<svg xmlns="http://www.w3.org/2000/svg" width="375" height="375"><path d="M0 0 C1.68302484 -0.00299615 3.366049 -0.00639973 5.04907227 -0.01017761 C9.60099075 -0.01897634 14.15289041 -0.02135401 18.70481658 -0.0219934 C21.55515406 -0.02270636 24.40548683 -0.02484534 27.25582314 -0.02749062 C37.21824062 -0.03673106 47.18064477 -0.04082722 57.14306641 -0.04003906 C66.39916671 -0.03943893 75.65520862 -0.04998142 84.91129416 -0.06578273 C92.88275651 -0.07890139 100.85419988 -0.08422113 108.82567292 -0.08358365 C113.57565354 -0.0833299 118.32558222 -0.08611302 123.07555199 -0.0967617 C127.54815475 -0.10651557 132.02065672 -0.10647245 136.49326324 -0.09924507 C138.12413749 -0.09820816 139.75501825 -0.10050824 141.38588142 -0.10660553 C168.15991319 -0.20013032 192.04435573 5.52939903 211.87817383 24.60620117 C234.13437958 47.70929451 235.4762413 77.16656768 235.48754883 107.55541992 C235.49077226 109.61502606 235.4941371 111.67463198 235.49763489 113.73423767 C235.50358974 118.03490732 235.50547862 122.33555699 235.50488281 126.63623047 C235.50478154 132.08637083 235.51841443 137.53637991 235.53565502 142.9864893 C235.54689823 147.23789532 235.54879827 151.48927087 235.54827309 155.74069023 C235.54943549 157.7468759 235.55375643 159.75306283 235.56160545 161.75923347 C235.59811311 172.05535386 235.38330167 182.25604295 234.44189453 192.51416016 C234.36588862 193.35904275 234.28988272 194.20392534 234.2115736 195.07441044 C232.01343179 216.60365798 221.45779329 235.93967704 205.08911133 250.02026367 C197.16846795 256.09759795 188.77263059 260.27660428 179.38208008 263.52026367 C178.7040332 263.75898193 178.02598633 263.9977002 177.32739258 264.24365234 C165.19918671 268.14664225 153.10775015 268.33865438 140.52661133 267.53979492 C102.48332018 265.72940707 77.83172148 269.0962057 47.6394043 294.57055664 C41.7987915 299.48160917 35.52273946 303.62076604 29.13208008 307.77026367 C27.77808105 308.70721069 27.77808105 308.70721069 26.39672852 309.66308594 C18.65371623 314.96576138 11.58798868 318.0918526 2.09692383 316.84057617 C-4.61307227 315.1607178 -9.97954128 311.80232305 -13.74291992 305.95776367 C-16.3654376 301.22603249 -16.81830337 297.1871275 -16.77807617 291.85229492 C-16.77666122 291.14626633 -16.77524628 290.44023773 -16.77378845 289.71281433 C-16.76819756 287.46108741 -16.7556468 285.20946046 -16.74291992 282.95776367 C-16.73790374 281.42977032 -16.73334104 279.9017754 -16.72924805 278.3737793 C-16.71823112 274.63090232 -16.70097279 270.88809994 -16.68041992 267.14526367 C-17.84057617 267.18006836 -19.00073242 267.21487305 -20.19604492 267.25073242 C-24.42969278 267.24607802 -28.34660412 266.53762612 -32.43041992 265.45776367 C-33.46912231 265.18766479 -33.46912231 265.18766479 -34.52880859 264.91210938 C-54.24747234 259.58722856 -72.2250988 248.04291929 -82.68041992 230.14526367 C-90.71601138 215.93765409 -94.7688314 201.98274103 -94.91748047 185.68383789 C-94.93059265 184.64219482 -94.94370483 183.60055176 -94.95721436 182.52734375 C-94.99896596 179.08491655 -95.0335324 175.64246695 -95.06713867 172.19995117 C-95.09282603 169.79021098 -95.11860983 167.38047182 -95.14448547 164.97073364 C-95.19745032 159.91191365 -95.24635216 154.8530717 -95.29296875 149.79418945 C-95.35294632 143.36386695 -95.42726443 136.93380016 -95.50534344 130.50367546 C-95.56346881 125.51891401 -95.61151482 120.5340901 -95.65693092 115.54919815 C-95.6800858 113.18210219 -95.70675827 110.81503757 -95.73724937 108.44802475 C-96.1448102 75.9981324 -93.96811097 47.29889469 -70.37573242 22.74682617 C-50.95388377 4.08911583 -25.86253827 -0.00921063 0 0 Z M-44.11791992 25.89526367 C-44.78057861 26.24177979 -45.4432373 26.5882959 -46.12597656 26.9453125 C-60.39715139 34.67473051 -69.64249875 47.89032974 -74.68041992 63.14526367 C-78.46909136 76.45439225 -78.1190556 89.85532908 -78.07885742 103.58276367 C-78.08088298 106.03645921 -78.08379841 108.49015416 -78.08755493 110.94384766 C-78.09195557 116.06410504 -78.08562037 121.18420447 -78.0715332 126.30444336 C-78.05444298 132.83026203 -78.06429633 139.35571038 -78.0822506 145.8815155 C-78.0931497 150.9416375 -78.08961409 156.00167334 -78.08186722 161.0617981 C-78.07988212 163.46648199 -78.08226425 165.87117399 -78.08930588 168.27584839 C-78.14356084 192.00439067 -76.00902719 214.20229494 -58.68041992 232.14526367 C-44.54744696 244.88192155 -27.28099161 250.2080311 -8.57104492 250.96948242 C-3.91457354 251.25264622 -3.91457354 251.25264622 -1.68041992 252.14526367 C-0.38302138 256.03745931 -0.54486426 259.73758577 -0.53979492 263.79370117 C-0.52146927 265.53850592 -0.50189918 267.28329796 -0.48120117 269.02807617 C-0.45222204 271.77569064 -0.43041953 274.52248637 -0.42993164 277.27026367 C-0.42659459 279.92464638 -0.39203653 282.57714586 -0.35229492 285.23120117 C-0.35936462 286.04906097 -0.36643433 286.86692078 -0.37371826 287.70956421 C-0.28470455 291.88900375 0.03453649 293.73491138 2.48657227 297.26489258 C5.13386203 299.360519 5.13386203 299.360519 8.04882812 299.32299805 C12.72109945 297.64060371 16.54969818 295.07047227 20.65161133 292.30151367 C21.55325012 291.70445618 22.45488892 291.10739868 23.3838501 290.49224854 C26.30660659 288.5530897 29.21933073 286.59941423 32.13208008 284.64526367 C34.12885189 283.3166483 36.12616768 281.9888501 38.12402344 280.66186523 C49.94197778 272.7999954 61.72713345 264.88515633 73.39892578 256.80737305 C74.29184326 256.1918457 75.18476074 255.57631836 76.10473633 254.94213867 C76.85634033 254.41974609 77.60794434 253.89735352 78.38232422 253.35913086 C82.3480067 250.8742697 85.80936002 251.01570412 90.3828125 251.00341797 C91.45682564 250.99820633 91.45682564 250.99820633 92.55253601 250.9928894 C94.10922151 250.98553654 95.66591747 250.98018865 97.2226162 250.97659874 C99.70149955 250.96940567 102.18018809 250.95371164 104.65901184 250.93525696 C111.70819181 250.882967 118.75727153 250.83497261 125.80664062 250.81933594 C130.12216102 250.80913767 134.43719916 250.77950727 138.75252724 250.73801613 C140.38321562 250.72585418 142.01397265 250.7205572 143.64470482 250.72281456 C163.75109462 250.74376964 182.19745272 246.24043379 197.78442383 232.71948242 C216.56893493 213.64553355 217.79192842 189.94786981 217.71801758 164.70776367 C217.72004314 162.25406813 217.72295857 159.80037319 217.72671509 157.34667969 C217.73111572 152.2264223 217.72478053 147.10632288 217.71069336 141.98608398 C217.69360314 135.46026532 217.70345649 128.93481696 217.72141075 122.40901184 C217.73230986 117.34888984 217.72877424 112.288854 217.72102737 107.22872925 C217.71904227 104.82404536 217.7214244 102.41935335 217.72846603 100.01467896 C217.77868942 78.04935326 216.29524381 59.13188023 202.31958008 41.14526367 C201.8477832 40.5084668 201.37598633 39.87166992 200.88989258 39.21557617 C190.97204225 26.60813932 174.77232008 20.33663399 159.31958008 18.14526367 C153.41156728 17.63565748 147.47727276 17.72342057 141.55249023 17.74121094 C139.8128567 17.73549438 138.07322692 17.7285252 136.33360291 17.72041321 C131.64956773 17.70260824 126.96572119 17.70362616 122.28166246 17.70935559 C118.35315072 17.71246603 114.42467424 17.70633449 110.49616754 17.70031685 C101.2191757 17.68631467 91.94227604 17.68779677 82.6652832 17.69921875 C73.13467454 17.71069459 63.60434746 17.69662336 54.07377589 17.66982228 C45.85333404 17.64758168 37.63298004 17.64104668 29.41251028 17.64689869 C24.51941067 17.65024967 19.62649145 17.64797809 14.73341751 17.63064766 C10.12848672 17.61504662 5.52396927 17.61927801 0.91905403 17.6379528 C-0.75774628 17.64160266 -2.43457814 17.63863735 -4.11134911 17.62806702 C-18.05646898 17.54696032 -31.60059497 19.20089841 -44.11791992 25.89526367 Z " fill="#ADB5BD" transform="translate(117.680419921875,28.854736328125)"></path><path d="M0 0 C6.32432062 6.0160597 10.25401909 13.23264194 10.92578125 21.9765625 C11.12053469 31.22222565 10.57350052 38.26123259 4.4765625 45.5 C0.66240568 49.44325136 -3.27752571 52.95045263 -7.75 56.125 C-11.22284311 58.63861024 -12.92358045 60.70824136 -14.3125 64.875 C-14.46060576 66.39375729 -14.58415433 67.91504189 -14.6875 69.4375 C-14.99520007 72.94054692 -15.32512321 73.89319227 -17.4375 76.9375 C-21.11660875 79.41689938 -22.9571617 79.65273898 -27.3125 78.875 C-30.25 77.25 -30.25 77.25 -32.3125 73.875 C-33.52082834 65.46969851 -32.90256453 57.15494105 -28.3125 49.875 C-24.24105373 44.94040712 -19.55383827 40.99345473 -14.4375 37.1875 C-10.83823707 34.44400588 -8.59515313 32.36428596 -7.3125 27.875 C-7.07534954 22.26243908 -8.54962364 18.12029641 -12.3125 13.875 C-17.08064902 10.53729569 -21.45203796 9.03779114 -27.3125 9.875 C-31.56126164 11.29925531 -34.57336222 13.07593213 -37.625 16.375 C-39.6397156 20.55366938 -40.53761811 24.6247954 -41.40625 29.16796875 C-42.47851295 32.37089212 -43.33243453 33.3345027 -46.3125 34.875 C-48.56640625 35.08984375 -48.56640625 35.08984375 -50.875 34.8125 C-51.63941406 34.73902344 -52.40382812 34.66554687 -53.19140625 34.58984375 C-56.04713776 33.6274149 -56.86364046 32.49200254 -58.3125 29.875 C-59.69228884 22.20536295 -57.95389857 14.65857314 -54.3125 7.875 C-48.35640287 -0.47544818 -41.45174292 -6.0636755 -31.4375 -8.5 C-19.66161697 -10.39580779 -9.12498584 -7.64015086 0 0 Z " fill="#ADB5BD" transform="translate(211.3125,107.125)"></path><path d="M0 0 C2.93052231 1.99524923 4.64521503 3.42836485 5.4453125 6.97265625 C5.63624174 10.37756097 5.2680298 12.5979553 3.375 15.4375 C0.41303588 17.3861606 -1.44757366 17.92895147 -5 18 C-10.61176471 15.77647059 -10.61176471 15.77647059 -12 13 C-12.68839635 6.00130378 -12.68839635 6.00130378 -9.9375 2 C-6.22192774 -0.52975133 -4.4117517 -0.7878128 0 0 Z " fill="#ADB5BD" transform="translate(191,206)"></path></svg>