<svg xmlns="http://www.w3.org/2000/svg" width="383" height="429"><path d="M0 0 C1.64693602 0.51607719 3.2942553 1.03093266 4.94192505 1.54466248 C8.47425308 2.64848349 12.00404418 3.7599496 15.53201294 4.87762451 C21.11180965 6.64513579 26.6967163 8.39604895 32.28295898 10.14306641 C33.22629498 10.43811192 34.16963099 10.73315742 35.14155293 11.03714371 C37.06780884 11.63958668 38.99408134 12.24197663 40.9203701 12.84431458 C43.86178596 13.76467818 46.80267777 14.68670089 49.7434845 15.60900879 C63.49084394 19.91745503 77.25876081 24.15476633 91.04296875 28.34375 C91.98340342 28.62963171 92.92383808 28.91551342 93.89277077 29.21005821 C102.10837412 31.70686517 110.32542699 34.19887915 118.54367065 36.6869812 C122.76812992 37.96602591 126.99175583 39.24779016 131.21487045 40.53126717 C133.4845225 41.22005831 135.75518109 41.90545019 138.02590942 42.59068298 C141.90229587 43.76422619 145.76717145 44.97047403 149.62890625 46.19140625 C150.71638153 46.52771057 151.80385681 46.86401489 152.92428589 47.21051025 C162.00467844 50.21086072 162.00467844 50.21086072 164.62890625 55.19140625 C165.43432617 58.13891602 165.43432617 58.13891602 165.859375 61.3828125 C166.02244141 62.57583984 166.18550781 63.76886719 166.35351562 64.99804688 C166.50626953 66.23748047 166.65902344 67.47691406 166.81640625 68.75390625 C166.98076172 69.96626953 167.14511719 71.17863281 167.31445312 72.42773438 C167.78918459 76.01224526 168.21954152 79.59888667 168.62890625 83.19140625 C168.73638184 84.09358887 168.84385742 84.99577148 168.95458984 85.92529297 C171.84492681 114.2838056 171.29441002 145.08195395 166.62890625 173.19140625 C166.32291504 175.04572266 166.32291504 175.04572266 166.01074219 176.9375 C162.99579453 194.64976893 158.99749722 212.03532208 153.62890625 229.19140625 C153.22551025 230.48232178 153.22551025 230.48232178 152.81396484 231.79931641 C139.32782596 274.12187212 116.73515296 313.99902738 86.78125 346.8203125 C84.86035248 348.93643736 82.98901193 351.08449894 81.12890625 353.25390625 C74.83616452 360.4622201 67.95855604 367.05034832 60.62890625 373.19140625 C60.09442871 373.64499512 59.55995117 374.09858398 59.00927734 374.56591797 C39.10823308 391.40029685 17.09368176 405.35484567 -6.74609375 415.94140625 C-7.70281982 416.37211426 -8.6595459 416.80282227 -9.64526367 417.24658203 C-17.13470936 420.45890977 -22.04969498 421.24967231 -29.78515625 418.20703125 C-31.86308994 417.30246564 -33.93309006 416.37952305 -35.99609375 415.44140625 C-37.09695312 414.94697021 -38.1978125 414.45253418 -39.33203125 413.94311523 C-64.06630726 402.61785161 -85.95771915 387.61262947 -106.03515625 369.30859375 C-108.14028123 367.40060422 -110.27723009 365.54093556 -112.43359375 363.69140625 C-119.64351521 357.3972611 -126.22203168 350.5161972 -132.37109375 343.19140625 C-133.01957275 342.43754639 -133.01957275 342.43754639 -133.68115234 341.66845703 C-178.12278397 289.87220624 -202.53447246 224.40345937 -210.37109375 157.19140625 C-210.47566895 156.32112793 -210.58024414 155.45084961 -210.68798828 154.55419922 C-211.81575746 143.48430749 -211.6123118 132.30588127 -211.62109375 121.19140625 C-211.6227655 120.07868347 -211.62443726 118.96596069 -211.62615967 117.81951904 C-211.62769792 100.74029112 -210.97999951 84.09309275 -208.37109375 67.19140625 C-208.23670898 66.13405273 -208.10232422 65.07669922 -207.96386719 63.98730469 C-207.81723633 62.92801758 -207.67060547 61.86873047 -207.51953125 60.77734375 C-207.39497559 59.82649902 -207.27041992 58.8756543 -207.14208984 57.89599609 C-206.12907527 54.34242564 -205.09392794 52.7321958 -202.37109375 50.19140625 C-199.18874709 48.64512232 -195.8786484 47.63820305 -192.5 46.60546875 C-190.93554893 46.10607285 -190.93554893 46.10607285 -189.3394928 45.59658813 C-186.34812456 44.64899731 -183.35198498 43.71899976 -180.35196686 42.79920959 C-178.30846574 42.17218972 -176.26627626 41.54103818 -174.2243042 40.90905762 C-163.81107329 37.68948974 -153.38185515 34.52328601 -142.94962692 31.36591721 C-134.78652968 28.89473065 -126.6253147 26.41734382 -118.46484375 23.9375 C-117.54810316 23.65902536 -116.63136257 23.38055073 -115.68684196 23.09363747 C-103.12243312 19.27486167 -90.57750548 15.39830281 -78.0507946 11.4576416 C-75.55504132 10.67277288 -73.05880126 9.88947277 -70.56239319 9.10668945 C-68.94270916 8.59866262 -67.32303437 8.09060632 -65.70336914 7.58251953 C-64.9161123 7.33556965 -64.12885546 7.08861977 -63.31774235 6.83418655 C-58.69544449 5.38279796 -54.07698162 3.91989263 -49.46093559 2.4487505 C-46.60927283 1.54273508 -43.7544087 0.64715681 -40.89862061 -0.24575996 C-38.9701704 -0.85243346 -37.04590029 -1.47234565 -35.12182617 -2.09275818 C-21.75319614 -6.25262697 -13.01347604 -4.16191164 0 0 Z M-28.21923828 13.90600586 C-29.44206009 14.28670227 -30.6648819 14.66739868 -31.92475891 15.05963135 C-33.28448892 15.48762568 -34.64420419 15.91566686 -36.00390625 16.34375 C-37.43767452 16.7916416 -38.87157173 17.23912059 -40.30558777 17.68621826 C-43.40544229 18.65348914 -46.50448763 19.6232959 -49.60293579 20.59506226 C-54.52846079 22.13971275 -59.4557633 23.6786302 -64.38354492 25.21606445 C-65.6375121 25.60729382 -65.6375121 25.60729382 -66.91681194 26.00642681 C-68.63144814 26.54134922 -70.3460933 27.07624294 -72.06074715 27.61110878 C-74.70080392 28.43480708 -77.34069868 29.25902308 -79.98057556 30.08329773 C-99.31155404 36.11736894 -118.66177582 42.08891793 -138.01363373 48.0556221 C-141.54244578 49.14373391 -145.07112617 50.23227234 -148.59980679 51.32081032 C-162.52217049 55.61555505 -176.44512186 59.90837316 -190.37109375 64.19140625 C-190.85552135 67.44065112 -191.3331695 70.69083114 -191.80859375 73.94140625 C-191.94330078 74.84246094 -192.07800781 75.74351563 -192.21679688 76.671875 C-194.30620374 91.04291734 -194.61270847 105.25462758 -194.62109375 119.75390625 C-194.62176849 120.80186371 -194.62244324 121.84982117 -194.62313843 122.92953491 C-194.60650408 139.21144958 -194.04736098 155.09724896 -191.37109375 171.19140625 C-191.1994873 172.24908203 -191.02788086 173.30675781 -190.85107422 174.39648438 C-181.18884596 232.38712334 -157.45672012 287.91047251 -118.37109375 332.19140625 C-117.67113281 333.00222656 -116.97117187 333.81304687 -116.25 334.6484375 C-105.52020631 346.87918531 -94.05797002 358.29880314 -80.9765625 367.99169922 C-79.45433378 369.12920407 -77.95865757 370.30199115 -76.46484375 371.4765625 C-50.18728152 392.2959228 -50.18728152 392.2959228 -19.7109375 402.05078125 C-15.063009 400.85482304 -10.93270589 398.90105515 -6.62109375 396.81640625 C-5.69804443 396.37232422 -4.77499512 395.92824219 -3.82397461 395.47070312 C15.02268633 386.22754951 32.22897339 374.40737243 48.00854492 360.60693359 C49.16527706 359.5964269 50.32752718 358.59222239 51.4934082 357.59228516 C63.1963948 347.49801076 74.23459131 336.47627964 83.62890625 324.19140625 C84.42296875 323.19109375 85.21703125 322.19078125 86.03515625 321.16015625 C130.70873227 264.64183938 153.18081011 192.765962 152.94140625 121.12890625 C152.94066605 119.59691086 152.94066605 119.59691086 152.93991089 118.03396606 C152.91301958 99.8061085 151.64929152 82.18183044 148.62890625 64.19140625 C115.10447514 53.55975978 81.49318736 43.22811434 47.83945656 33.01431179 C44.45572705 31.98720203 41.07224681 30.95927369 37.68889236 29.93092918 C36.03185029 29.42730888 34.37474385 28.92390028 32.71757126 28.42070961 C23.61313092 25.65476836 14.52066778 22.85537269 5.44921875 19.98291016 C4.2221949 19.59476057 4.2221949 19.59476057 2.97038269 19.19876957 C-0.92155761 17.9665509 -4.81161048 16.72880338 -8.69897461 15.48222351 C-10.07532673 15.04444693 -11.45170846 14.60676344 -12.828125 14.16918945 C-14.62213745 13.5942852 -14.62213745 13.5942852 -16.45239258 13.00776672 C-20.98270164 11.74063966 -23.82030269 12.52801424 -28.21923828 13.90600586 Z " fill="#ADB5BD" transform="translate(212.37109375,5.80859375)"></path><path d="M0 0 C1.6768834 0.51561431 3.35411265 1.03010502 5.03166199 1.54354858 C9.51402075 2.91889121 13.99146908 4.30959369 18.46799088 5.7038002 C23.10013288 7.14411401 27.73615684 8.57182085 32.37182617 10.00073242 C37.95900812 11.72400035 43.54559062 13.44914407 49.12998962 15.18141174 C59.60451373 18.43052659 70.08682742 21.65106673 80.58453369 24.82448387 C85.02884385 26.16919744 89.47063294 27.52221796 93.91278076 28.87405396 C96.24528595 29.58195011 98.57881704 30.28647529 100.91339111 30.98751831 C104.10569849 31.94740992 107.2934711 32.92108702 110.48046875 33.8984375 C111.39741013 34.17029877 112.3143515 34.44216003 113.25907898 34.72225952 C117.96100503 36.18063445 121.52088086 37.60068264 125.1171875 41.12890625 C128.19317743 47.28088612 127.28817206 55.86779361 127.3203125 62.59375 C127.32737213 63.5761969 127.33443176 64.5586438 127.34170532 65.57086182 C127.57081174 106.85315263 127.57081174 106.85315263 124.1171875 126.12890625 C123.81917236 127.82756836 123.81917236 127.82756836 123.51513672 129.56054688 C116.10286477 170.66950683 102.35365261 211.71731234 78.1171875 246.12890625 C77.60430176 246.86061035 77.09141602 247.59231445 76.56298828 248.34619141 C69.81934503 257.89628014 62.83607335 266.96646953 54.73046875 275.3984375 C52.51946122 277.70859335 50.42820201 280.0613947 48.3671875 282.50390625 C45.55666307 285.74786095 42.51871183 288.54092357 39.2421875 291.30859375 C37.81653729 292.52983088 36.42030065 293.78619725 35.0546875 295.07421875 C20.77686593 308.50925224 4.37115715 318.95216755 -12.8828125 328.12890625 C-13.54458496 328.49918945 -14.20635742 328.86947266 -14.88818359 329.25097656 C-19.06242649 331.08825655 -23.73230572 330.85939742 -28.01025391 329.40625 C-30.13683539 328.40455155 -32.16062822 327.30586648 -34.1953125 326.12890625 C-35.29879028 325.51595703 -35.29879028 325.51595703 -36.42456055 324.890625 C-52.14969456 316.03120141 -66.31803874 304.9712359 -79.8828125 293.12890625 C-80.3876416 292.68869141 -80.8924707 292.24847656 -81.41259766 291.79492188 C-86.64707292 287.2038187 -91.62445478 282.55909691 -96.09765625 277.21875 C-97.38140492 275.71589324 -98.71347285 274.25382556 -100.07421875 272.8203125 C-148.12951606 222.14241469 -170.49786426 147.3389852 -170.08862305 78.68212891 C-170.07013388 75.47290223 -170.06811584 72.26396245 -170.06835938 69.0546875 C-170.06345005 66.98307045 -170.0576243 64.91145532 -170.05078125 62.83984375 C-170.04966843 61.89595795 -170.0485556 60.95207214 -170.04740906 59.97958374 C-169.94279914 45.23891555 -169.94279914 45.23891555 -167.4543457 40.28540039 C-163.61470697 37.06546979 -159.50453389 36.00873992 -154.73828125 34.625 C-153.65886765 34.29567978 -152.57945404 33.96635956 -151.46733093 33.62705994 C-149.00010651 32.87449545 -146.53163183 32.12823793 -144.06048584 31.38885498 C-139.51161535 30.02306786 -134.9774405 28.61134478 -130.44384766 27.19580078 C-123.39552865 24.99633214 -116.34493593 22.80449048 -109.29101562 20.62304688 C-108.37976488 20.3412388 -107.46851414 20.05943073 -106.52964973 19.76908302 C-104.67831932 19.19656784 -102.82698506 18.62406509 -100.97564697 18.05157471 C-98.20398437 17.19408912 -95.43262432 16.33563319 -92.66137695 15.47680664 C-82.86071543 12.43964848 -73.05775334 9.4102847 -63.24931526 6.39832497 C-58.50821615 4.94123278 -53.77155864 3.47095117 -49.03907108 1.98613453 C-46.26850254 1.11906083 -43.49490612 0.26200947 -40.72044945 -0.5925312 C-38.87305096 -1.16510122 -37.02960609 -1.7503804 -35.18635559 -2.33616638 C-21.93150683 -6.39374111 -12.91376172 -4.04926599 0 0 Z M-30.25195312 14.30932617 C-31.37907164 14.65873685 -31.37907164 14.65873685 -32.52896023 15.01520634 C-35.03356542 15.79267434 -37.53627248 16.57608531 -40.0390625 17.359375 C-41.80289538 17.90786507 -43.56685968 18.4559327 -45.33094788 19.00360107 C-50.04455924 20.46796289 -54.75665554 21.93714147 -59.46843338 23.40739059 C-67.17364629 25.81070152 -74.88118452 28.20655181 -82.58889961 30.60182381 C-84.4917964 31.19317634 -86.39464236 31.78469241 -88.29743767 32.37637138 C-99.48794836 35.8551435 -110.68563151 39.3030247 -121.91796875 42.64453125 C-122.95436493 42.95340775 -123.99076111 43.26228424 -125.05856323 43.58052063 C-129.56510967 44.92115506 -134.07472279 46.24982497 -138.58984375 47.5612793 C-140.10554243 48.0093537 -141.62117316 48.45765806 -143.13671875 48.90625 C-144.38783447 49.26968506 -145.6389502 49.63312012 -146.92797852 50.00756836 C-149.84833255 51.11582136 -150.98013371 51.74642131 -152.8828125 54.12890625 C-153.1959342 57.21282394 -153.32613616 60.08964949 -153.31640625 63.17578125 C-153.32337021 64.08645859 -153.33033417 64.99713593 -153.33750916 65.93540955 C-153.35153446 68.91693079 -153.33878697 71.89741831 -153.3203125 74.87890625 C-153.31727112 75.89554352 -153.31422974 76.91218079 -153.31109619 77.95962524 C-153.2327686 95.63085217 -152.10684703 112.72011484 -148.8828125 130.12890625 C-148.67914063 131.23073242 -148.47546875 132.33255859 -148.265625 133.46777344 C-139.18271315 180.52230287 -118.70611486 225.17145888 -86.8828125 261.12890625 C-85.72652344 262.45148438 -85.72652344 262.45148438 -84.546875 263.80078125 C-76.01957259 273.43513696 -67.06362939 282.24698349 -56.8828125 290.12890625 C-56.32996582 290.55816406 -55.77711914 290.98742187 -55.20751953 291.4296875 C-47.99286883 296.99143989 -40.58897895 302.09499717 -32.7578125 306.75390625 C-32.04737793 307.17986084 -31.33694336 307.60581543 -30.60498047 308.04467773 C-25.55541179 311.09812544 -25.55541179 311.09812544 -19.8828125 312.12890625 C-17.2193141 310.97125164 -14.91777688 309.79600064 -12.4453125 308.31640625 C-11.74446533 307.90841797 -11.04361816 307.50042969 -10.3215332 307.08007812 C13.060686 293.22316707 34.30553006 274.42176949 51.1171875 253.12890625 C51.88675781 252.18789063 52.65632812 251.246875 53.44921875 250.27734375 C76.39163953 221.59005185 91.59407936 187.40684223 101.1171875 152.12890625 C101.35276367 151.2579834 101.58833984 150.38706055 101.83105469 149.48974609 C108.31837714 124.85920586 110.48698951 100.25105636 110.5546875 74.87890625 C110.5608609 73.86835175 110.5670343 72.85779724 110.57339478 71.81661987 C110.58474853 68.93590553 110.57266178 66.05641564 110.55078125 63.17578125 C110.55353058 62.30532669 110.55627991 61.43487213 110.55911255 60.53804016 C110.6152047 56.31983388 110.6152047 56.31983388 109.03904724 52.53102112 C106.26285566 50.50561863 103.21999791 49.67073063 99.96337891 48.71557617 C99.23463531 48.49354051 98.5058917 48.27150484 97.75506496 48.04274082 C95.32891758 47.30594536 92.89892837 46.58275325 90.46875 45.859375 C88.75497824 45.34155642 87.04147696 44.82284195 85.32823181 44.30328369 C80.74755905 42.9165062 76.16358088 41.54097434 71.57890701 40.16749191 C66.86949671 38.75455293 62.16315382 37.33148528 57.45678711 35.90844727 C55.58262771 35.34183813 53.70846695 34.7752335 51.83430481 34.20863342 C50.91124857 33.92954699 49.98819233 33.65046055 49.03716469 33.36291695 C46.2491184 32.52044522 43.46068642 31.67926097 40.67216492 30.83836365 C24.48562895 25.95466711 8.34168842 20.94252808 -7.77685547 15.83862305 C-9.3941962 15.32988506 -11.01154576 14.82117516 -12.62890625 14.3125 C-13.33741226 14.08564514 -14.04591827 13.85879028 -14.77589417 13.62506104 C-20.71875781 11.76026967 -24.44649823 12.48100327 -30.25195312 14.30932617 Z " fill="#ADB5BD" transform="translate(212.8828125,49.87109375)"></path><path d="M0 0 C6.37507753 4.99399488 10.43027504 10.76758347 12.75 18.5 C13.83447465 29.34474655 11.85070453 37.10579976 5.0108757 45.63455963 C1.70463184 49.52377202 -1.84444862 53.13930701 -5.45458984 56.74511719 C-6.67801842 57.9786216 -6.67801842 57.9786216 -7.92616272 59.23704529 C-10.59918445 61.92892332 -13.27955097 64.61333078 -15.9609375 67.296875 C-17.36083846 68.70158137 -18.76073737 70.10628981 -20.16038764 71.51124597 C-24.55198762 75.91905206 -28.94918544 80.32121948 -33.34960938 84.72021484 C-37.8707285 89.24013104 -42.38055204 93.77110472 -46.88526952 98.30736232 C-50.77303304 102.22136081 -54.66855421 106.12752412 -58.5700947 110.02778935 C-60.89166916 112.34885676 -63.20915283 114.67375604 -65.52073288 117.00478363 C-68.09992548 119.60364617 -70.69157415 122.1894422 -73.28662109 124.77246094 C-74.03807907 125.53515793 -74.78953705 126.29785492 -75.56376648 127.08366394 C-83.14600875 134.57724991 -90.40330923 139.06769758 -101.1875 139.3125 C-116.77556226 139.13813689 -125.78055156 127.38794455 -136.140625 117.09765625 C-136.65785881 116.58449797 -137.17509262 116.07133968 -137.70800018 115.54263115 C-140.43879025 112.83253402 -143.16641196 110.11929261 -145.89160156 107.40356445 C-148.68941682 104.61685811 -151.4987308 101.84204393 -154.31070328 99.06963444 C-156.4896564 96.91691063 -158.65959586 94.75526695 -160.82726288 92.59118462 C-161.85883473 91.56445189 -162.89375359 90.54106959 -163.93219757 89.52128792 C-171.91042272 81.67776695 -177.98650429 74.58755739 -178.3125 62.9375 C-178.24410993 55.63930227 -176.04827025 49.41378376 -172.3125 43.1875 C-164.53988308 35.83502453 -156.57509935 32.44131618 -145.8359375 32.69140625 C-131.60523086 34.23992667 -122.49091971 46.36835032 -113 55.9375 C-111.92862113 57.01390654 -110.85700818 58.09008014 -109.78515625 59.16601562 C-107.18740362 61.77466745 -104.59282038 64.38644471 -102 67 C-97.43074801 63.18305416 -93.10081069 59.23123682 -88.93212891 54.98217773 C-88.08908958 54.1297197 -88.08908958 54.1297197 -87.22901917 53.26004028 C-86.02109049 52.03837097 -84.81425148 50.81562343 -83.60841751 49.59188652 C-81.69344339 47.65000936 -79.77389921 45.71276181 -77.85287476 43.77687073 C-72.39528847 38.27679427 -66.9404429 32.77409496 -61.50195312 27.25512695 C-58.16339779 23.8678395 -54.81497722 20.49057672 -51.46006393 17.11949348 C-50.19103747 15.84062511 -48.92566048 14.55812378 -47.66417313 13.27181816 C-34.62634234 -0.01685574 -18.80897287 -11.44614418 0 0 Z M-33.07519531 23.86401367 C-33.75560883 24.54574142 -34.43602234 25.22746918 -35.13705444 25.92985535 C-37.37205724 28.17131942 -39.59999693 30.41967262 -41.828125 32.66796875 C-43.38366503 34.22978218 -44.93972334 35.79107958 -46.49627686 37.35188293 C-50.5833744 41.45225676 -54.66485849 45.55816885 -58.74475098 49.66571045 C-65.28794092 56.25210082 -71.83794611 62.8316972 -78.39113617 69.40813637 C-80.68138083 71.7086273 -82.96819707 74.01248669 -85.25469971 76.31669617 C-86.65047992 77.71930103 -88.04636832 79.12179824 -89.44238281 80.52416992 C-90.08031769 81.16884216 -90.71825256 81.8135144 -91.3755188 82.47772217 C-96.62160906 87.73744934 -96.62160906 87.73744934 -100.625 88.5 C-110.72725065 87.00337027 -121.01329387 71.95803553 -127.94848633 64.8046875 C-129.78068176 62.91782461 -131.62549298 61.04407226 -133.47265625 59.171875 C-134.02389664 58.59685242 -134.57513702 58.02182983 -135.14308167 57.42938232 C-138.82730548 53.72081579 -142.03062178 51.68638874 -147 50 C-151.14434575 50 -152.81747047 50.8736334 -156.25 53.25 C-159.93907526 56.93907526 -160.88401584 59.0282692 -161.1875 64.1875 C-158.25916107 73.58900919 -147.92410021 81.23500182 -141.07421875 88.09375 C-140.16420609 89.00709106 -139.25419342 89.92043213 -138.31660461 90.8614502 C-136.41162998 92.77234364 -134.50467118 94.68123049 -132.59643555 96.58886719 C-130.15593966 99.02926041 -127.72246163 101.47652942 -125.29057598 103.92549896 C-122.95211113 106.27773919 -120.60648782 108.62279402 -118.26171875 110.96875 C-117.39189865 111.84575562 -116.52207855 112.72276123 -115.62590027 113.62634277 C-114.40861992 114.83900818 -114.40861992 114.83900818 -113.16674805 116.07617188 C-112.45665085 116.78769409 -111.74655365 117.49921631 -111.01493835 118.2322998 C-107.90378343 120.96170795 -105.7481828 121.91686858 -101.625 122.375 C-93.82718876 121.56832987 -88.73570394 115.02714307 -83.45605469 109.73071289 C-82.61958405 108.89935318 -81.7831134 108.06799347 -80.92129517 107.21144104 C-78.64087949 104.94250287 -76.36500988 102.66913225 -74.09159756 100.39318013 C-72.18969117 98.49020026 -70.28480817 96.59021362 -68.37997556 94.69016355 C-63.88671053 90.20796903 -59.39876426 85.72049762 -54.9140625 81.22973633 C-50.29206348 76.60168847 -45.66094155 71.98291529 -41.02529597 67.36853987 C-37.03843916 63.39930303 -33.05741796 59.42427889 -29.08098912 55.44459528 C-26.70896902 53.07076402 -24.33478835 50.69920179 -21.95491791 48.3332386 C-19.30485121 45.69548287 -16.66447002 43.04839541 -14.02636719 40.39868164 C-12.84504715 39.22882721 -12.84504715 39.22882721 -11.63986206 38.03533936 C-10.56331863 36.94827446 -10.56331863 36.94827446 -9.46502686 35.83924866 C-8.84046978 35.21485932 -8.2159127 34.59046999 -7.57242966 33.94715977 C-4.82050218 30.53941275 -3.96916124 27.86348532 -4.125 23.5 C-5.25553891 18.97784435 -7.04480404 16.41583155 -10.8125 13.6875 C-20.8636365 10.52857138 -26.60679716 17.30563444 -33.07519531 23.86401367 Z " fill="#ADB5BD" transform="translate(274,132)"></path></svg>